<svg xmlns="http://www.w3.org/2000/svg" xmlns:xlink="http://www.w3.org/1999/xlink" width="500" zoomAndPan="magnify" viewBox="0 0 375 374.999991" height="500" preserveAspectRatio="xMidYMid meet" version="1.0"><defs><g/><clipPath id="8a8ec466a8"><path d="M 0 161.003906 L 375 161.003906 L 375 240.234375 L 0 240.234375 Z M 0 161.003906 " clip-rule="nonzero"/></clipPath></defs><g fill="#e8b4b8" fill-opacity="1"><g transform="translate(24.495662, 276.843058)"><g><path d="M 16.015625 0 L 66.894531 0 L 66.894531 -4.082031 C 57.160156 -6.910156 54.332031 -14.132812 54.332031 -39.886719 L 54.332031 -86.996094 L 76.632812 -86.996094 C 135.046875 -86.996094 165.511719 -116.203125 165.511719 -157.972656 C 165.511719 -188.4375 144.78125 -219.84375 79.773438 -219.84375 L 16.015625 -219.84375 L 16.015625 -215.761719 C 25.4375 -212.933594 28.578125 -205.710938 28.578125 -179.957031 L 28.578125 -39.886719 C 28.578125 -14.132812 25.4375 -6.910156 16.015625 -4.082031 Z M 54.332031 -91.707031 L 54.332031 -214.503906 C 58.101562 -214.820312 63.125 -215.132812 67.523438 -215.132812 C 118.085938 -215.132812 137.875 -184.355469 137.875 -150.75 C 137.875 -113.691406 116.203125 -91.707031 76.003906 -91.707031 Z M 54.332031 -91.707031 "/></g></g></g><g fill="#e8b4b8" fill-opacity="1"><g transform="translate(177.443362, 276.843058)"><g><path d="M 89.507812 3.140625 C 126.566406 3.140625 163 -20.726562 163 -59.984375 C 163 -95.476562 130.335938 -109.292969 95.476562 -123.113281 C 68.78125 -134.105469 36.429688 -146.039062 36.429688 -175.5625 C 36.429688 -202.257812 58.101562 -217.015625 83.539062 -217.015625 C 119.34375 -217.015625 141.328125 -197.546875 152.949219 -170.222656 L 156.089844 -171.164062 L 154.832031 -207.59375 C 142.585938 -214.191406 122.171875 -222.042969 93.589844 -222.042969 C 47.421875 -222.042969 16.960938 -198.800781 16.960938 -162.054688 C 16.960938 -128.765625 40.515625 -115.574219 77.574219 -100.8125 C 103.953125 -90.136719 142.585938 -75.6875 142.585938 -44.28125 C 142.585938 -18.84375 120.914062 -2.511719 95.789062 -2.511719 C 52.132812 -2.511719 28.265625 -30.464844 16.015625 -63.441406 L 12.5625 -62.8125 L 14.132812 -19.15625 C 28.894531 -8.480469 56.53125 3.140625 89.507812 3.140625 Z M 89.507812 3.140625 "/></g></g></g><g clip-path="url(#8a8ec466a8)"><path fill="#67595e" d="M -66.828125 161.003906 L 441.828125 161.003906 L 441.828125 240.234375 L -66.828125 240.234375 Z M -66.828125 161.003906 " fill-opacity="1" fill-rule="nonzero"/></g><g fill="#e8b4b8" fill-opacity="1"><g transform="translate(27.043051, 347.962302)"><g><path d="M 1.835938 0 L 7.660156 0 L 7.660156 -0.46875 C 6.546875 -0.792969 6.222656 -1.617188 6.222656 -4.566406 L 6.222656 -13.484375 L 10.5 -13.484375 C 14.601562 -13.484375 15.609375 -12.621094 16.074219 -11.003906 L 16.507812 -11.003906 L 16.507812 -16.472656 L 16.074219 -16.472656 C 15.609375 -14.886719 14.601562 -14.023438 10.5 -14.0625 L 6.222656 -14.0625 L 6.222656 -24.597656 L 12.585938 -24.597656 C 15.96875 -24.597656 17.476562 -23.699219 18.699219 -21.289062 L 19.097656 -21.398438 L 18.773438 -25.171875 L 1.835938 -25.171875 L 1.835938 -24.707031 C 2.914062 -24.382812 3.273438 -23.554688 3.273438 -20.605469 L 3.273438 -4.566406 C 3.273438 -1.617188 2.914062 -0.792969 1.835938 -0.46875 Z M 1.835938 0 "/></g></g></g><g fill="#e8b4b8" fill-opacity="1"><g transform="translate(75.29967, 347.962302)"><g><path d="M -0.613281 0 L 3.453125 0 L 3.453125 -0.46875 C 2.230469 -0.71875 2.085938 -1.90625 3.019531 -4.242188 L 5.144531 -9.492188 L 15.285156 -9.492188 L 17.476562 -4.207031 C 18.628906 -1.511719 18.917969 -0.792969 17.800781 -0.46875 L 17.800781 0 L 23.375 0 L 23.375 -0.46875 C 22.621094 -0.792969 21.757812 -1.511719 20.640625 -4.207031 L 11.796875 -25.460938 L 9.097656 -24.238281 L 9.421875 -23.484375 C 9.710938 -22.90625 9.746094 -22.441406 9.492188 -21.792969 L 2.410156 -4.242188 C 1.292969 -1.511719 0.394531 -0.792969 -0.613281 -0.46875 Z M 5.359375 -10.035156 L 10.140625 -21.863281 L 15.066406 -10.035156 Z M 5.359375 -10.035156 "/></g></g></g><g fill="#e8b4b8" fill-opacity="1"><g transform="translate(126.504447, 347.962302)"><g><path d="M 10.25 0.359375 C 14.492188 0.359375 18.664062 -2.375 18.664062 -6.867188 C 18.664062 -10.933594 14.925781 -12.515625 10.933594 -14.097656 C 7.875 -15.355469 4.171875 -16.722656 4.171875 -20.101562 C 4.171875 -23.160156 6.652344 -24.851562 9.566406 -24.851562 C 13.664062 -24.851562 16.183594 -22.621094 17.515625 -19.492188 L 17.875 -19.597656 L 17.730469 -23.769531 C 16.328125 -24.527344 13.988281 -25.425781 10.71875 -25.425781 C 5.429688 -25.425781 1.941406 -22.765625 1.941406 -18.558594 C 1.941406 -14.746094 4.640625 -13.234375 8.882812 -11.542969 C 11.902344 -10.320312 16.328125 -8.667969 16.328125 -5.070312 C 16.328125 -2.15625 13.84375 -0.289062 10.96875 -0.289062 C 5.96875 -0.289062 3.238281 -3.488281 1.835938 -7.265625 L 1.4375 -7.191406 L 1.617188 -2.195312 C 3.308594 -0.972656 6.472656 0.359375 10.25 0.359375 Z M 10.25 0.359375 "/></g></g></g><g fill="#e8b4b8" fill-opacity="1"><g transform="translate(174.473442, 347.962302)"><g><path d="M 1.835938 0 L 7.660156 0 L 7.660156 -0.46875 C 6.546875 -0.792969 6.222656 -1.617188 6.222656 -4.566406 L 6.222656 -13.054688 L 19.921875 -13.054688 L 19.921875 -4.566406 C 19.921875 -1.617188 19.5625 -0.792969 18.484375 -0.46875 L 18.484375 0 L 24.3125 0 L 24.3125 -0.46875 C 23.195312 -0.792969 22.871094 -1.617188 22.871094 -4.566406 L 22.871094 -20.605469 C 22.871094 -23.554688 23.195312 -24.382812 24.3125 -24.707031 L 24.3125 -25.171875 L 18.484375 -25.171875 L 18.484375 -24.707031 C 19.5625 -24.382812 19.921875 -23.554688 19.921875 -20.605469 L 19.921875 -13.628906 L 6.222656 -13.628906 L 6.222656 -20.605469 C 6.222656 -23.554688 6.546875 -24.382812 7.660156 -24.707031 L 7.660156 -25.171875 L 1.835938 -25.171875 L 1.835938 -24.707031 C 2.914062 -24.382812 3.273438 -23.554688 3.273438 -20.605469 L 3.273438 -4.566406 C 3.273438 -1.617188 2.914062 -0.792969 1.835938 -0.46875 Z M 1.835938 0 "/></g></g></g><g fill="#e8b4b8" fill-opacity="1"><g transform="translate(228.734215, 347.962302)"><g><path d="M 1.835938 0 L 7.660156 0 L 7.660156 -0.46875 C 6.546875 -0.792969 6.222656 -1.617188 6.222656 -4.566406 L 6.222656 -20.605469 C 6.222656 -23.554688 6.546875 -24.382812 7.660156 -24.707031 L 7.660156 -25.171875 L 1.835938 -25.171875 L 1.835938 -24.707031 C 2.914062 -24.382812 3.273438 -23.554688 3.273438 -20.605469 L 3.273438 -4.566406 C 3.273438 -1.617188 2.914062 -0.792969 1.835938 -0.46875 Z M 1.835938 0 "/></g></g></g><g fill="#e8b4b8" fill-opacity="1"><g transform="translate(266.38468, 347.962302)"><g><path d="M 14.671875 0.359375 C 20.714844 0.359375 27.402344 -3.597656 27.402344 -12.480469 C 27.402344 -21.289062 20.75 -25.460938 14.671875 -25.460938 C 7.046875 -25.460938 1.871094 -19.996094 1.871094 -12.621094 C 1.871094 -3.703125 8.558594 0.359375 14.671875 0.359375 Z M 4.746094 -14.707031 C 4.53125 -20.570312 7.730469 -24.632812 13.199219 -24.632812 C 19.636719 -24.632812 24.347656 -17.621094 24.597656 -10.105469 C 24.777344 -4.710938 21.9375 -0.539062 16.183594 -0.539062 C 9.746094 -0.539062 5 -7.480469 4.746094 -14.707031 Z M 4.746094 -14.707031 "/></g></g></g><g fill="#e8b4b8" fill-opacity="1"><g transform="translate(323.773363, 347.962302)"><g><path d="M 20.824219 0.289062 L 21.289062 0.289062 L 21.289062 -20.605469 C 21.289062 -23.554688 21.613281 -24.382812 22.726562 -24.707031 L 22.726562 -25.171875 L 18.195312 -25.171875 L 18.195312 -24.707031 C 19.816406 -24.273438 20.679688 -23.269531 20.679688 -19.167969 L 20.679688 -4.820312 L 4.960938 -25.171875 L 1.4375 -25.171875 L 1.4375 -24.707031 C 2.878906 -24.382812 3.308594 -23.554688 3.308594 -20.605469 L 3.308594 -4.566406 C 3.308594 -1.617188 2.949219 -0.792969 1.871094 -0.46875 L 1.871094 0 L 6.367188 0 L 6.367188 -0.46875 C 4.746094 -0.898438 3.882812 -1.90625 3.882812 -6.003906 L 3.882812 -21.757812 Z M 20.824219 0.289062 "/></g></g></g><g fill="#e8b4b8" fill-opacity="1"><g transform="translate(57.963339, 244.495483)"><g><path d="M 26.160156 -23.980469 C 25.929688 -26.273438 26.042969 -29.601562 26.503906 -31.4375 C 27.191406 -34.074219 27.765625 -35.566406 28.226562 -35.796875 C 32.929688 -36.945312 40.386719 -40.042969 44.859375 -42.453125 C 45.664062 -42.910156 46.238281 -43.140625 46.8125 -43.253906 C 47.5 -43.371094 48.53125 -42.910156 49.222656 -42.335938 C 49.792969 -41.761719 49.792969 -41.417969 50.253906 -41.417969 C 51.859375 -41.417969 51.402344 -42.335938 51.171875 -42.796875 C 50.828125 -43.484375 49.222656 -43.941406 48.53125 -43.941406 C 47.84375 -43.941406 48.53125 -44.632812 52.664062 -47.386719 C 58.628906 -51.402344 64.710938 -58.054688 63.21875 -65.972656 C 61.496094 -75.953125 50.023438 -77.214844 41.878906 -76.640625 C 36.828125 -76.296875 30.75 -75.152344 25.355469 -72.972656 C 18.703125 -70.21875 12.390625 -65.859375 10.097656 -62.300781 C 9.0625 -60.925781 8.03125 -58.054688 8.03125 -57.023438 C 8.03125 -56.21875 8.144531 -54.5 9.523438 -54.269531 C 10.898438 -54.039062 11.242188 -55.1875 9.867188 -55.1875 C 9.179688 -55.1875 8.71875 -56.679688 8.71875 -57.023438 C 8.835938 -61.839844 14.570312 -66.203125 18.011719 -68.496094 C 25.929688 -73.316406 35.222656 -75.839844 44.058594 -76.070312 C 51.515625 -76.296875 60.234375 -74.234375 61.496094 -65.398438 C 62.644531 -56.792969 55.417969 -50.710938 49.335938 -46.46875 C 47.84375 -45.433594 47.042969 -44.402344 46.125 -44.632812 C 41.761719 -45.320312 37.632812 -45.089844 30.863281 -43.828125 L 31.324219 -45.089844 C 32.929688 -49.335938 35.453125 -53.238281 37.058594 -57.480469 C 37.632812 -59.203125 37.632812 -59.433594 37.289062 -59.777344 C 36.945312 -60.121094 36.714844 -60.121094 36.140625 -59.890625 C 35.683594 -59.777344 35.109375 -59.089844 33.847656 -56.449219 C 32.011719 -53.007812 29.945312 -49.566406 28.339844 -45.894531 C 27.421875 -43.941406 27.078125 -43.253906 26.617188 -43.140625 C 23.519531 -42.222656 20.765625 -41.535156 18.011719 -40.273438 C 16.636719 -39.582031 11.472656 -37.175781 12.390625 -34.878906 C 12.734375 -33.847656 13.308594 -33.730469 15.488281 -33.730469 C 18.359375 -33.847656 20.191406 -33.960938 21.570312 -34.191406 C 23.175781 -34.535156 24.207031 -34.304688 23.980469 -33.730469 C 23.863281 -33.503906 23.75 -32.125 23.636719 -30.519531 C 23.519531 -27.996094 23.863281 -26.042969 24.207031 -24.667969 C 24.898438 -21.339844 26.390625 -21.683594 26.160156 -23.980469 Z M 28.226562 -36.945312 L 29.257812 -39.925781 L 30.40625 -42.796875 C 33.730469 -43.253906 36.945312 -43.941406 40.273438 -44.058594 C 42.796875 -44.171875 43.941406 -44.058594 45.089844 -43.828125 C 45.089844 -43.371094 36.601562 -39.355469 32.46875 -37.863281 C 31.4375 -37.519531 28.339844 -36.828125 28.226562 -36.945312 Z M 18.472656 -34.765625 C 15.257812 -34.421875 13.308594 -34.535156 13.308594 -35.109375 C 13.308594 -37.976562 23.40625 -41.761719 25.472656 -42.109375 C 25.816406 -42.109375 26.847656 -42.566406 26.617188 -41.992188 L 25.585938 -39.238281 C 25.011719 -37.976562 24.667969 -36.714844 24.667969 -36.484375 C 24.554688 -35.566406 23.0625 -35.109375 18.472656 -34.765625 Z M 18.472656 -34.765625 "/></g></g></g><g fill="#e8b4b8" fill-opacity="1"><g transform="translate(111.07945, 244.495483)"><g><path d="M -0.34375 -33.042969 C 0.6875 -33.042969 1.261719 -33.386719 2.867188 -34.648438 L 4.128906 -35.683594 C 4.476562 -34.421875 5.164062 -33.503906 6.082031 -33.042969 C 8.949219 -31.4375 18.359375 -34.648438 18.929688 -37.058594 C 18.929688 -37.175781 18.011719 -36.257812 15.375 -35.222656 C 12.507812 -34.304688 10.210938 -33.386719 8.71875 -34.074219 C 7 -34.878906 7.226562 -36.371094 7.6875 -37.746094 C 8.261719 -39.582031 8.835938 -40.617188 8.492188 -40.960938 C 8.375 -41.074219 8.03125 -41.417969 7.800781 -41.761719 C 7.226562 -42.679688 6.195312 -42.796875 4.476562 -41.992188 C 2.066406 -40.84375 -1.261719 -36.484375 -1.492188 -34.421875 C -1.605469 -33.386719 -1.261719 -33.042969 -0.34375 -33.042969 Z M 0.804688 -34.304688 C -0.457031 -34.304688 2.640625 -39.8125 4.476562 -40.960938 C 5.390625 -41.535156 6.65625 -41.648438 6.882812 -41.191406 C 7.226562 -40.5 1.835938 -34.304688 0.804688 -34.304688 Z M 0.804688 -34.304688 "/></g></g></g><g fill="#e8b4b8" fill-opacity="1"><g transform="translate(129.779072, 244.495483)"><g><path d="M 8.835938 -32.699219 C 9.636719 -32.699219 10.785156 -32.929688 11.128906 -33.042969 C 12.734375 -33.386719 14.339844 -33.960938 15.832031 -34.648438 C 16.292969 -34.878906 19.964844 -36.601562 19.621094 -37.175781 C 19.503906 -37.289062 18.703125 -36.714844 18.359375 -36.484375 L 16.636719 -35.683594 C 14.570312 -34.878906 12.507812 -34.191406 10.324219 -33.960938 L 9.523438 -34.074219 L 9.410156 -34.191406 C 9.179688 -34.648438 9.867188 -36.371094 10.097656 -36.828125 C 10.554688 -37.976562 12.046875 -40.042969 12.046875 -41.304688 C 11.933594 -41.761719 10.210938 -41.535156 9.867188 -41.191406 C 9.0625 -40.386719 8.144531 -39.007812 7.34375 -38.207031 C 4.703125 -35.683594 2.640625 -34.421875 1.835938 -34.421875 C 1.148438 -34.421875 1.605469 -35.339844 3.671875 -38.894531 C 4.589844 -40.617188 4.933594 -41.761719 4.476562 -41.992188 C 4.015625 -42.222656 2.867188 -42.335938 2.410156 -42.109375 C 1.835938 -41.761719 -0.574219 -36.714844 -0.574219 -35.910156 C -0.574219 -35.453125 -0.34375 -34.648438 -0.113281 -34.191406 C 0.34375 -33.273438 0.457031 -33.15625 1.148438 -33.15625 C 1.605469 -33.15625 2.292969 -33.386719 2.640625 -33.617188 C 4.359375 -34.535156 5.046875 -34.992188 5.851562 -35.683594 L 6.769531 -36.484375 L 6.769531 -35.453125 C 6.769531 -34.421875 7.34375 -32.585938 8.835938 -32.699219 Z M 8.835938 -32.699219 "/></g></g></g><g fill="#e8b4b8" fill-opacity="1"><g transform="translate(148.822862, 244.495483)"><g><path d="M 5.046875 -26.160156 C 6.308594 -25.699219 7.226562 -25.699219 8.261719 -26.160156 C 8.71875 -26.390625 8.71875 -26.503906 7.917969 -26.390625 C 3.785156 -25.929688 2.640625 -31.4375 2.640625 -36.371094 C 2.523438 -41.304688 6.195312 -50.941406 8.835938 -57.824219 C 9.179688 -58.742188 9.636719 -59.660156 10.210938 -60.578125 C 12.390625 -62.070312 15.605469 -64.824219 17.785156 -67.464844 C 19.390625 -69.300781 21.339844 -71.019531 22.144531 -73.316406 C 22.71875 -76.527344 20.765625 -76.296875 19.046875 -75.496094 C 16.523438 -74.460938 12.160156 -68.957031 9.0625 -62.875 L 7.917969 -60.695312 C 7.226562 -59.660156 3.097656 -58.285156 1.835938 -58.171875 C 0.6875 -58.054688 -1.375 -58.171875 0.230469 -57.136719 C 1.492188 -56.335938 1.949219 -56.792969 3.441406 -57.253906 C 4.015625 -57.480469 6.539062 -58.859375 6.539062 -58.742188 C 6.65625 -58.742188 1.492188 -46.582031 0.574219 -42.335938 C -0.457031 -37.519531 -0.804688 -28.226562 5.046875 -26.160156 Z M 10.554688 -61.726562 C 10.210938 -62.070312 16.292969 -71.480469 16.75 -72.054688 C 18.242188 -74.003906 19.273438 -75.035156 19.847656 -75.152344 C 20.882812 -75.722656 22.488281 -75.609375 21.457031 -73.199219 C 21.109375 -71.9375 17.324219 -67.464844 14.914062 -65.285156 C 13.425781 -63.90625 10.785156 -61.613281 10.554688 -61.726562 Z M 10.554688 -61.726562 "/></g></g></g><g fill="#e8b4b8" fill-opacity="1"><g transform="translate(159.606679, 244.495483)"><g><path d="M 7.800781 -47.730469 C 7.917969 -48.417969 8.03125 -49.105469 8.03125 -49.449219 C 8.144531 -49.910156 8.03125 -50.023438 7.574219 -50.140625 L 6.425781 -50.023438 C 5.738281 -49.910156 5.738281 -49.449219 6.425781 -47.84375 C 7.226562 -46.351562 7.6875 -46.238281 7.800781 -47.730469 Z M 4.015625 -32.242188 C 6.769531 -32.242188 9.753906 -33.042969 12.507812 -34.878906 C 14.226562 -35.796875 15.949219 -37.058594 15.488281 -37.058594 C 15.257812 -37.058594 14.914062 -36.945312 14.800781 -36.828125 C 14.339844 -36.484375 13.425781 -35.910156 12.160156 -35.339844 C 8.949219 -33.730469 7.457031 -33.386719 4.128906 -33.386719 C 2.292969 -33.386719 1.605469 -34.304688 1.605469 -34.304688 C 1.261719 -34.765625 1.375 -35.453125 1.492188 -35.910156 C 1.722656 -36.828125 3.097656 -39.582031 3.785156 -40.5 C 3.785156 -40.617188 3.902344 -40.730469 3.902344 -40.84375 C 4.128906 -41.191406 4.246094 -41.535156 4.246094 -41.761719 C 4.015625 -42.335938 2.867188 -42.222656 2.179688 -41.648438 C 1.375 -41.074219 0 -38.78125 -0.457031 -37.289062 C -0.804688 -36.140625 -1.375 -34.992188 -1.03125 -34.304688 C -0.917969 -34.074219 -0.230469 -33.273438 1.148438 -32.699219 C 1.949219 -32.46875 2.867188 -32.125 4.015625 -32.242188 Z M 4.015625 -32.242188 "/></g></g></g><g fill="#e8b4b8" fill-opacity="1"><g transform="translate(174.5205, 244.495483)"><g><path d="M 10.324219 -31.78125 C 13.539062 -30.863281 16.292969 -31.78125 20.308594 -34.304688 C 23.40625 -36.257812 23.636719 -37.175781 23.175781 -36.828125 L 20.539062 -35.109375 C 17.09375 -32.8125 12.046875 -30.75 10.554688 -35.109375 C 10.210938 -36.140625 9.980469 -36.828125 9.980469 -38.4375 C 9.980469 -38.664062 9.753906 -39.007812 9.523438 -39.238281 C 8.605469 -40.15625 6.769531 -39.699219 4.359375 -37.863281 C 3.902344 -37.519531 3.558594 -37.402344 3.441406 -37.402344 C 3.328125 -37.402344 3.671875 -38.207031 3.902344 -38.894531 C 4.359375 -40.386719 4.703125 -40.730469 4.589844 -41.304688 C 4.476562 -41.761719 3.097656 -41.648438 2.292969 -41.074219 C 1.605469 -40.617188 1.375 -40.273438 0.230469 -37.863281 C -0.574219 -36.257812 -0.6875 -34.421875 0 -33.847656 C 0.6875 -33.273438 1.261719 -33.730469 2.984375 -35.453125 C 3.328125 -35.796875 6.082031 -38.320312 6.769531 -38.320312 C 6.882812 -38.320312 6.882812 -37.746094 6.882812 -37.175781 C 7 -35.109375 7.34375 -32.585938 10.324219 -31.78125 Z M 10.324219 -31.78125 "/></g></g></g><g fill="#e8b4b8" fill-opacity="1"><g transform="translate(197.694258, 244.495483)"><g><path d="M 7.34375 -31.78125 C 9.292969 -32.355469 11.589844 -33.386719 13.195312 -34.421875 C 13.539062 -34.648438 17.324219 -36.601562 16.75 -37.175781 C 16.636719 -37.289062 15.949219 -36.714844 15.605469 -36.484375 L 13.882812 -35.566406 C 11.816406 -34.535156 9.292969 -32.929688 4.933594 -32.929688 C 2.179688 -32.929688 1.03125 -34.074219 1.722656 -36.601562 L 1.949219 -37.058594 C 2.292969 -37.746094 2.523438 -37.863281 3.671875 -37.976562 C 5.277344 -38.089844 6.539062 -38.664062 7.34375 -39.46875 C 7.800781 -39.925781 8.03125 -40.5 8.03125 -40.960938 C 8.03125 -42.566406 7.113281 -42.910156 4.128906 -41.992188 C 2.640625 -41.417969 1.261719 -40.042969 1.261719 -40.042969 C 0.230469 -38.894531 -0.917969 -37.289062 -1.148438 -35.683594 C -1.148438 -34.992188 -1.261719 -34.191406 -0.917969 -33.503906 C 0.113281 -31.207031 3.441406 -30.632812 7.34375 -31.78125 Z M 2.753906 -38.664062 C 2.984375 -39.355469 4.246094 -40.960938 5.390625 -41.417969 C 6.539062 -41.992188 6.882812 -41.992188 7 -41.304688 C 7.113281 -40.617188 6.769531 -39.925781 5.964844 -39.355469 C 4.933594 -38.78125 3.441406 -38.550781 2.753906 -38.664062 Z M 2.753906 -38.664062 "/></g></g></g><g fill="#e8b4b8" fill-opacity="1"><g transform="translate(213.984712, 244.495483)"><g/></g></g><g fill="#e8b4b8" fill-opacity="1"><g transform="translate(231.192956, 244.495483)"><g><path d="M 53.121094 -10.210938 C 53.238281 -10.324219 52.890625 -10.441406 52.089844 -10.441406 C 49.105469 -10.554688 44.859375 -12.621094 42.679688 -14.457031 L 39.582031 -16.523438 L 37.976562 -17.554688 C 44.171875 -21.570312 48.761719 -27.765625 45.550781 -35.339844 C 43.597656 -39.925781 38.78125 -41.304688 33.960938 -42.566406 C 28.453125 -44.058594 23.0625 -45.550781 21.570312 -50.140625 C 17.210938 -64.480469 37.976562 -76.296875 48.992188 -78.019531 C 56.792969 -79.28125 78.59375 -77.789062 69.300781 -64.367188 C 67.691406 -62.070312 64.710938 -59.777344 62.300781 -58.972656 C 60.578125 -58.285156 59.660156 -57.710938 60.925781 -57.941406 C 66.085938 -58.859375 74.003906 -65.054688 74.003906 -70.792969 C 74.234375 -79.050781 59.546875 -79.855469 53.582031 -79.167969 C 48.875 -79.28125 42.109375 -77.332031 35.796875 -74.117188 C 28.453125 -70.445312 13.195312 -58.628906 19.390625 -48.074219 C 24.324219 -39.582031 39.007812 -45.433594 43.140625 -33.617188 C 44.402344 -30.058594 43.140625 -24.78125 39.8125 -21.109375 C 38.894531 -20.191406 37.519531 -18.816406 37.175781 -18.703125 C 36.601562 -18.242188 36.484375 -18.359375 35.566406 -18.929688 C 32.125 -21.226562 24.667969 -23.980469 21.226562 -24.09375 C 15.71875 -24.09375 9.980469 -22.488281 8.492188 -19.046875 C 7.574219 -16.523438 7.800781 -13.996094 10.554688 -12.390625 C 12.851562 -11.128906 17.667969 -10.324219 22.257812 -11.359375 C 25.929688 -12.277344 30.175781 -13.652344 33.617188 -15.375 C 34.765625 -15.949219 35.796875 -16.40625 36.027344 -16.40625 C 36.257812 -16.40625 37.863281 -15.488281 39.46875 -14.339844 C 40.960938 -13.308594 49.449219 -8.144531 53.121094 -10.210938 Z M 18.242188 -11.816406 C 14.226562 -11.816406 13.308594 -12.046875 11.472656 -12.851562 C 8.949219 -14.113281 8.144531 -16.867188 9.753906 -19.160156 C 11.703125 -22.027344 15.71875 -23.0625 19.046875 -23.175781 C 23.980469 -23.292969 29.714844 -20.539062 33.730469 -17.898438 L 34.878906 -17.210938 C 29.140625 -14.113281 23.292969 -11.816406 18.242188 -11.816406 Z M 18.242188 -11.816406 "/></g></g></g><g fill="#e8b4b8" fill-opacity="1"><g transform="translate(286.832946, 244.495483)"><g><path d="M 13.308594 -22.375 C 17.667969 -21.683594 22.257812 -23.0625 27.078125 -26.503906 C 28.683594 -27.652344 27.652344 -27.535156 25.929688 -26.390625 C 24.09375 -25.125 21.570312 -23.980469 17.667969 -23.292969 C 10.671875 -22.027344 8.375 -29.257812 8.144531 -34.191406 C 8.144531 -35.683594 7.6875 -36.714844 7.226562 -36.828125 C 7 -36.828125 6.195312 -36.484375 5.277344 -36.140625 C 4.589844 -35.910156 2.753906 -34.992188 1.375 -34.191406 C 1.492188 -34.878906 1.605469 -35.566406 1.949219 -36.257812 C 2.523438 -38.78125 3.902344 -44.171875 4.476562 -45.777344 L 5.507812 -48.53125 L 6.308594 -50.484375 L 8.03125 -51.859375 C 11.242188 -54.382812 19.390625 -60.695312 23.0625 -67.921875 C 25.242188 -72.398438 24.667969 -72.742188 25.011719 -74.691406 C 24.667969 -77.789062 23.519531 -78.59375 21.109375 -77.445312 C 18.929688 -76.527344 16.175781 -74.003906 13.882812 -71.363281 C 11.359375 -68.152344 9.523438 -65.511719 7.226562 -59.777344 C 4.589844 -53.121094 4.015625 -52.320312 3.210938 -49.679688 C 1.375 -48.875 0.113281 -48.761719 -1.375 -49.449219 C -1.949219 -49.792969 -2.523438 -50.253906 -2.867188 -50.828125 C -3.328125 -51.746094 -3.671875 -51.746094 -4.359375 -50.941406 C -4.703125 -50.367188 -4.703125 -50.367188 -4.128906 -49.679688 C -3.441406 -48.761719 -1.835938 -48.074219 -0.34375 -48.074219 C 0.574219 -47.957031 1.722656 -48.304688 2.867188 -48.761719 C 1.492188 -44.976562 -1.03125 -37.175781 -1.492188 -34.648438 C -2.066406 -30.863281 -1.375 -30.058594 1.03125 -31.78125 L 3.441406 -33.730469 C 4.246094 -34.421875 5.164062 -35.109375 5.277344 -35.109375 C 5.390625 -35.109375 5.507812 -34.304688 5.507812 -33.503906 C 5.390625 -28.453125 7.800781 -23.175781 13.308594 -22.375 Z M 7.34375 -53.695312 C 9.523438 -60.007812 10.898438 -62.988281 13.195312 -67.347656 C 14.800781 -70.21875 18.929688 -76.988281 22.488281 -76.988281 C 26.042969 -76.988281 23.0625 -70.675781 22.488281 -69.644531 C 20.996094 -66.429688 19.847656 -64.136719 17.324219 -61.382812 C 14.570312 -58.285156 11.933594 -55.761719 9.292969 -53.808594 C 6.769531 -51.859375 6.769531 -51.859375 7.34375 -53.695312 Z M 7.34375 -53.695312 "/></g></g></g><g fill="#e8b4b8" fill-opacity="1"><g transform="translate(302.090933, 244.495483)"><g><path d="M 7.800781 -47.730469 C 7.917969 -48.417969 8.03125 -49.105469 8.03125 -49.449219 C 8.144531 -49.910156 8.03125 -50.023438 7.574219 -50.140625 L 6.425781 -50.023438 C 5.738281 -49.910156 5.738281 -49.449219 6.425781 -47.84375 C 7.226562 -46.351562 7.6875 -46.238281 7.800781 -47.730469 Z M 4.015625 -32.242188 C 6.769531 -32.242188 9.753906 -33.042969 12.507812 -34.878906 C 14.226562 -35.796875 15.949219 -37.058594 15.488281 -37.058594 C 15.257812 -37.058594 14.914062 -36.945312 14.800781 -36.828125 C 14.339844 -36.484375 13.425781 -35.910156 12.160156 -35.339844 C 8.949219 -33.730469 7.457031 -33.386719 4.128906 -33.386719 C 2.292969 -33.386719 1.605469 -34.304688 1.605469 -34.304688 C 1.261719 -34.765625 1.375 -35.453125 1.492188 -35.910156 C 1.722656 -36.828125 3.097656 -39.582031 3.785156 -40.5 C 3.785156 -40.617188 3.902344 -40.730469 3.902344 -40.84375 C 4.128906 -41.191406 4.246094 -41.535156 4.246094 -41.761719 C 4.015625 -42.335938 2.867188 -42.222656 2.179688 -41.648438 C 1.375 -41.074219 0 -38.78125 -0.457031 -37.289062 C -0.804688 -36.140625 -1.375 -34.992188 -1.03125 -34.304688 C -0.917969 -34.074219 -0.230469 -33.273438 1.148438 -32.699219 C 1.949219 -32.46875 2.867188 -32.125 4.015625 -32.242188 Z M 4.015625 -32.242188 "/></g></g></g></svg>