<svg xmlns="http://www.w3.org/2000/svg" xmlns:xlink="http://www.w3.org/1999/xlink" width="500" zoomAndPan="magnify" viewBox="0 0 375 374.999991" height="500" preserveAspectRatio="xMidYMid meet" version="1.0"><defs><g/><clipPath id="12e59f01e9"><path d="M 87.269531 182 L 119 182 L 119 197 L 87.269531 197 Z M 87.269531 182 " clip-rule="nonzero"/></clipPath><clipPath id="968c29f663"><path d="M 180 325 L 195 325 L 195 356.972656 L 180 356.972656 Z M 180 325 " clip-rule="nonzero"/></clipPath><clipPath id="f314699662"><path d="M 256 180 L 287.519531 180 L 287.519531 195 L 256 195 Z M 256 180 " clip-rule="nonzero"/></clipPath></defs><path fill="#e8b4b8" d="M 280.894531 183.316406 C 280.207031 183.316406 279.648438 182.757812 279.648438 182.070312 L 279.648438 121.144531 C 279.648438 71.4375 241.675781 30.140625 193.199219 27.136719 C 192.511719 27.09375 191.992188 26.503906 192.035156 25.816406 C 192.078125 25.128906 192.683594 24.613281 193.351562 24.648438 C 243.140625 27.734375 282.140625 70.121094 282.140625 121.144531 L 282.140625 182.070312 C 282.140625 182.757812 281.585938 183.316406 280.894531 183.316406 Z M 280.894531 183.316406 " fill-opacity="1" fill-rule="nonzero"/><path fill="#e8b4b8" d="M 94.222656 185.460938 C 93.535156 185.460938 92.976562 184.90625 92.976562 184.214844 L 92.976562 121.144531 C 92.976562 70.128906 131.972656 27.742188 181.753906 24.648438 C 182.445312 24.617188 183.03125 25.128906 183.074219 25.816406 C 183.117188 26.503906 182.59375 27.09375 181.90625 27.136719 C 133.4375 30.152344 95.46875 71.445312 95.46875 121.144531 L 95.46875 184.214844 C 95.46875 184.90625 94.910156 185.460938 94.222656 185.460938 Z M 94.222656 185.460938 " fill-opacity="1" fill-rule="nonzero"/><path fill="#e8b4b8" d="M 181.832031 350.949219 C 181.808594 350.949219 181.78125 350.949219 181.753906 350.949219 C 131.972656 347.855469 92.980469 305.46875 92.980469 254.449219 L 92.980469 195.671875 C 92.980469 194.980469 93.535156 194.421875 94.226562 194.421875 C 94.914062 194.421875 95.46875 194.980469 95.46875 195.671875 L 95.46875 254.449219 C 95.46875 304.152344 133.4375 345.445312 181.910156 348.460938 C 182.597656 348.5 183.121094 349.09375 183.078125 349.777344 C 183.035156 350.441406 182.484375 350.949219 181.832031 350.949219 Z M 181.832031 350.949219 " fill-opacity="1" fill-rule="nonzero"/><path fill="#e8b4b8" d="M 193.277344 350.949219 C 192.621094 350.949219 192.074219 350.441406 192.035156 349.78125 C 191.992188 349.09375 192.511719 348.503906 193.199219 348.460938 C 241.675781 345.453125 279.648438 304.160156 279.648438 254.449219 L 279.648438 193.527344 C 279.648438 192.835938 280.207031 192.28125 280.894531 192.28125 C 281.585938 192.28125 282.140625 192.835938 282.140625 193.527344 L 282.140625 254.449219 C 282.140625 305.476562 243.140625 347.863281 193.355469 350.949219 C 193.328125 350.949219 193.300781 350.949219 193.277344 350.949219 Z M 193.277344 350.949219 " fill-opacity="1" fill-rule="nonzero"/><path fill="#e8b4b8" d="M 193.277344 333.625 C 192.632812 333.625 192.085938 333.128906 192.035156 332.472656 C 191.980469 331.789062 192.496094 331.1875 193.179688 331.136719 C 231.980469 328.175781 262.371094 294.492188 262.371094 254.449219 L 262.371094 193.523438 C 262.371094 192.835938 262.929688 192.277344 263.617188 192.277344 C 264.308594 192.277344 264.863281 192.835938 264.863281 193.523438 L 264.863281 254.449219 C 264.863281 295.789062 233.460938 330.5625 193.371094 333.621094 C 193.339844 333.625 193.308594 333.625 193.277344 333.625 Z M 193.277344 333.625 " fill-opacity="1" fill-rule="nonzero"/><path fill="#e8b4b8" d="M 181.832031 333.625 C 181.800781 333.625 181.769531 333.621094 181.738281 333.621094 C 141.652344 330.554688 110.253906 295.777344 110.253906 254.449219 L 110.253906 195.671875 C 110.253906 194.980469 110.808594 194.421875 111.5 194.421875 C 112.1875 194.421875 112.742188 194.980469 112.742188 195.671875 L 112.742188 254.449219 C 112.742188 294.480469 143.132812 328.167969 181.929688 331.136719 C 182.613281 331.191406 183.128906 331.789062 183.074219 332.472656 C 183.023438 333.128906 182.476562 333.625 181.832031 333.625 Z M 181.832031 333.625 " fill-opacity="1" fill-rule="nonzero"/><path fill="#e8b4b8" d="M 111.496094 185.460938 C 110.808594 185.460938 110.25 184.90625 110.25 184.214844 L 110.25 121.144531 C 110.25 79.820312 141.652344 45.042969 181.734375 41.976562 C 182.425781 41.929688 183.019531 42.4375 183.070312 43.125 C 183.125 43.808594 182.609375 44.410156 181.925781 44.460938 C 143.128906 47.429688 112.742188 81.113281 112.742188 121.144531 L 112.742188 184.214844 C 112.742188 184.90625 112.183594 185.460938 111.496094 185.460938 Z M 111.496094 185.460938 " fill-opacity="1" fill-rule="nonzero"/><path fill="#e8b4b8" d="M 263.621094 183.316406 C 262.929688 183.316406 262.375 182.757812 262.375 182.070312 L 262.375 121.144531 C 262.375 81.105469 231.984375 47.421875 193.183594 44.460938 C 192.496094 44.40625 191.984375 43.808594 192.035156 43.125 C 192.089844 42.4375 192.671875 41.925781 193.375 41.976562 C 233.460938 45.035156 264.867188 79.808594 264.867188 121.144531 L 264.867188 182.070312 C 264.867188 182.757812 264.308594 183.316406 263.621094 183.316406 Z M 263.621094 183.316406 " fill-opacity="1" fill-rule="nonzero"/><path fill="#e8b4b8" d="M 193.28125 49.09375 L 181.835938 49.09375 C 181.148438 49.09375 180.589844 48.539062 180.589844 47.847656 L 180.589844 19.320312 C 180.589844 18.632812 181.148438 18.074219 181.835938 18.074219 L 193.28125 18.074219 C 193.96875 18.074219 194.527344 18.632812 194.527344 19.320312 L 194.527344 47.851562 C 194.527344 48.539062 193.96875 49.09375 193.28125 49.09375 Z M 183.082031 46.605469 L 192.035156 46.605469 L 192.035156 20.566406 L 183.082031 20.566406 Z M 183.082031 46.605469 " fill-opacity="1" fill-rule="nonzero"/><g clip-path="url(#12e59f01e9)"><path fill="#e8b4b8" d="M 117.015625 196.917969 L 88.511719 196.917969 C 87.824219 196.917969 87.269531 196.359375 87.269531 195.671875 L 87.269531 184.214844 C 87.269531 183.527344 87.824219 182.96875 88.511719 182.96875 L 117.015625 182.96875 C 117.703125 182.96875 118.261719 183.527344 118.261719 184.214844 L 118.261719 195.671875 C 118.257812 196.359375 117.703125 196.917969 117.015625 196.917969 Z M 89.757812 194.425781 L 115.769531 194.425781 L 115.769531 185.460938 L 89.757812 185.460938 Z M 89.757812 194.425781 " fill-opacity="1" fill-rule="nonzero"/></g><g clip-path="url(#968c29f663)"><path fill="#e8b4b8" d="M 193.28125 356.894531 L 181.835938 356.894531 C 181.148438 356.894531 180.589844 356.335938 180.589844 355.648438 L 180.589844 327.121094 C 180.589844 326.429688 181.148438 325.871094 181.835938 325.871094 L 193.28125 325.871094 C 193.96875 325.871094 194.527344 326.429688 194.527344 327.121094 L 194.527344 355.648438 C 194.527344 356.335938 193.96875 356.894531 193.28125 356.894531 Z M 183.082031 354.402344 L 192.035156 354.402344 L 192.035156 328.367188 L 183.082031 328.367188 Z M 183.082031 354.402344 " fill-opacity="1" fill-rule="nonzero"/></g><g clip-path="url(#f314699662)"><path fill="#e8b4b8" d="M 286.332031 194.773438 L 257.828125 194.773438 C 257.140625 194.773438 256.585938 194.214844 256.585938 193.523438 L 256.585938 182.070312 C 256.585938 181.382812 257.140625 180.824219 257.828125 180.824219 L 286.332031 180.824219 C 287.019531 180.824219 287.578125 181.382812 287.578125 182.070312 L 287.578125 193.523438 C 287.578125 194.214844 287.019531 194.773438 286.332031 194.773438 Z M 259.074219 192.277344 L 285.085938 192.277344 L 285.085938 183.316406 L 259.074219 183.316406 Z M 259.074219 192.277344 " fill-opacity="1" fill-rule="nonzero"/></g><path fill="#e8b4b8" d="M 158.191406 198.933594 C 158.109375 198.933594 158.023438 198.925781 157.9375 198.90625 C 157.382812 198.789062 156.980469 198.3125 156.949219 197.75 C 156.550781 189.789062 152.160156 182.203125 145.207031 177.449219 C 144.917969 177.253906 144.730469 176.949219 144.675781 176.609375 C 144.621094 176.265625 144.714844 175.917969 144.929688 175.648438 C 147.519531 172.355469 151.179688 170.195312 154.714844 168.113281 C 158.804688 165.707031 162.664062 163.429688 164.753906 159.609375 C 165.039062 159.09375 165.910156 157.316406 165.15625 156.242188 C 164.738281 155.640625 163.796875 155.355469 162.859375 155.550781 C 161.996094 155.726562 161.09375 156.257812 160.023438 157.214844 C 158.476562 158.59375 157.125 160.28125 155.820312 161.914062 L 145.25 175.121094 C 145.25 175.125 145.25 175.125 145.25 175.125 L 145.246094 175.125 C 144.816406 175.664062 144.035156 175.753906 143.496094 175.320312 C 143.273438 175.144531 143.128906 174.90625 143.066406 174.648438 C 142.894531 174.257812 142.175781 172.910156 141.738281 172.089844 C 141.085938 170.855469 140.828125 170.371094 140.738281 170.148438 C 140.019531 168.382812 139.449219 166.535156 139.042969 164.652344 C 138.671875 162.917969 138.457031 160.945312 138.390625 158.625 L 138.382812 158.050781 C 138.355469 155.140625 138.300781 154.023438 138.25 153.625 C 138.207031 153.53125 138.175781 153.433594 138.15625 153.332031 C 138.023438 152.65625 138.464844 152 139.136719 151.871094 L 148.535156 150.027344 C 154.027344 148.953125 159.703125 147.839844 164.589844 145.070312 C 165.621094 144.488281 166.886719 143.667969 167.503906 142.515625 C 167.953125 141.683594 168 140.402344 167.300781 139.785156 C 166.671875 139.230469 165.523438 139.21875 164.496094 139.273438 C 154.445312 139.832031 144.710938 144.351562 137.785156 151.664062 C 137.472656 151.996094 137 152.132812 136.558594 152.011719 C 136.117188 151.890625 135.777344 151.539062 135.671875 151.09375 L 132.472656 137.578125 C 131.429688 133.175781 131.980469 130.082031 134.105469 128.371094 C 138.628906 123.695312 144.988281 122 149.539062 121.398438 C 153.816406 120.835938 158.15625 120.945312 162.355469 121.050781 C 163.640625 121.085938 164.921875 121.117188 166.203125 121.132812 C 168.28125 121.144531 170.578125 121.070312 172.015625 119.808594 C 173.003906 118.941406 173.253906 117.757812 173.289062 116.910156 C 173.355469 115.367188 172.75 113.734375 171.707031 112.652344 C 169.316406 110.167969 165.476562 109.898438 163.414062 109.960938 C 158.429688 110.105469 153.074219 112.074219 147.925781 115.644531 C 144.710938 117.875 141.835938 120.492188 138.796875 123.261719 C 137.414062 124.523438 136.015625 125.792969 134.570312 127.042969 C 134.203125 127.359375 133.6875 127.433594 133.246094 127.234375 C 132.804688 127.035156 132.519531 126.597656 132.511719 126.113281 C 132.367188 114.945312 135.230469 107.179688 141.023438 103.023438 C 146.273438 99.261719 153.082031 99.160156 158.429688 99.488281 C 163.964844 99.832031 169.507812 100.671875 174.902344 101.984375 C 178.398438 102.835938 180.496094 102.605469 181.304688 101.289062 C 181.929688 100.261719 181.511719 98.839844 180.859375 97.949219 C 180.007812 96.792969 178.632812 95.980469 177.296875 95.25 C 170.5625 91.550781 164.953125 89.824219 159.648438 89.816406 C 159.640625 89.816406 159.628906 89.816406 159.617188 89.816406 C 153.105469 89.816406 147.105469 92.871094 144.328125 97.605469 C 144.019531 98.132812 143.375 98.355469 142.808594 98.136719 C 142.238281 97.921875 141.910156 97.324219 142.03125 96.726562 C 143.800781 88.027344 151.511719 82.320312 158.824219 77.882812 C 165.554688 73.804688 172.898438 69.890625 181.003906 68.875 C 190.125 67.734375 198.683594 70.847656 203.351562 76.992188 C 207.828125 82.882812 208.808594 91.148438 206.328125 102.191406 C 211.421875 99.378906 217.519531 98.300781 223.496094 99.222656 C 230.238281 100.261719 236.589844 103.753906 241.386719 109.058594 C 245.253906 113.332031 247.691406 118.441406 248.25 123.441406 C 248.925781 129.503906 246.988281 135.308594 245.21875 139.6875 C 242.515625 146.390625 239.132812 152.210938 235.164062 156.976562 C 234.796875 157.414062 234.183594 157.546875 233.671875 157.300781 C 233.53125 157.238281 233.414062 157.148438 233.3125 157.042969 C 233.433594 157.808594 233.535156 158.574219 233.640625 159.320312 L 233.734375 160.003906 C 234.082031 162.5 232.988281 163.761719 231.828125 165.09375 C 230.308594 166.84375 228.613281 168.441406 226.78125 169.835938 C 223.085938 172.660156 218.800781 174.691406 214.386719 175.714844 C 213.882812 175.828125 213.367188 175.628906 213.078125 175.207031 C 213.101562 177.617188 212.273438 179.644531 210.714844 180.960938 C 210.675781 180.992188 210.632812 181.023438 210.589844 181.050781 C 205.71875 184.238281 200.089844 186.296875 194.320312 187.003906 C 193.808594 187.074219 193.335938 186.824219 193.085938 186.390625 C 192.835938 185.957031 192.871094 185.414062 193.175781 185.015625 C 196.511719 180.609375 198.105469 174.929688 197.539062 169.429688 C 196.976562 163.929688 194.265625 158.6875 190.101562 155.054688 C 189.402344 154.445312 188.78125 154.140625 188.472656 154.277344 C 188.253906 154.371094 188.09375 154.804688 188.136719 155.207031 C 188.203125 155.792969 188.539062 156.390625 188.972656 157.109375 C 191.742188 161.707031 195.191406 167.425781 193.613281 173.242188 C 193.070312 175.25 191.992188 176.976562 190.945312 178.644531 C 190.597656 179.203125 190.25 179.757812 189.925781 180.320312 C 188.484375 182.816406 187.953125 185.023438 188.347656 186.878906 C 188.425781 187.242188 188.339844 187.621094 188.109375 187.914062 C 186.253906 190.261719 182.980469 191.511719 178.871094 191.429688 C 177.628906 191.40625 176.394531 191.28125 175.203125 191.164062 C 173.371094 190.984375 171.648438 190.8125 169.929688 190.96875 C 165.472656 191.378906 161.300781 194.234375 159.300781 198.242188 C 159.09375 198.671875 158.65625 198.933594 158.191406 198.933594 Z M 147.734375 176.199219 C 153.703125 180.6875 157.75 187.164062 159.035156 194.160156 C 161.6875 190.996094 165.59375 188.867188 169.707031 188.488281 C 171.667969 188.308594 173.589844 188.503906 175.457031 188.6875 C 176.652344 188.808594 177.785156 188.921875 178.925781 188.941406 C 180.746094 188.992188 183.914062 188.730469 185.8125 186.769531 C 185.507812 184.453125 186.167969 181.867188 187.777344 179.078125 C 188.117188 178.488281 188.480469 177.90625 188.847656 177.324219 C 189.835938 175.742188 190.773438 174.246094 191.222656 172.59375 C 192.519531 167.808594 189.507812 162.8125 186.851562 158.402344 C 186.40625 157.667969 185.800781 156.660156 185.667969 155.480469 C 185.503906 153.957031 186.257812 152.519531 187.503906 151.988281 C 188.789062 151.441406 190.214844 151.839844 191.746094 153.179688 C 196.382812 157.222656 199.398438 163.054688 200.027344 169.175781 C 200.554688 174.324219 199.390625 179.613281 196.792969 184.082031 C 201.183594 183.183594 205.414062 181.453125 209.171875 179.011719 C 210.554688 177.792969 210.652344 175.84375 210.582031 174.785156 C 210.46875 173.011719 209.824219 171.230469 209.199219 169.507812 L 202.171875 150.101562 C 201.480469 148.191406 200.699219 146.027344 200.800781 143.734375 C 200.90625 141.441406 202.152344 138.714844 204.699219 137.792969 C 206.082031 137.289062 207.558594 137.414062 208.972656 138.140625 C 210.867188 139.113281 212.425781 141.074219 213.039062 143.25 C 213.601562 145.246094 213.589844 147.269531 213.578125 149.226562 C 213.570312 150.398438 213.5625 151.503906 213.671875 152.59375 C 213.898438 154.875 214.617188 157.054688 215.378906 159.367188 C 215.804688 160.652344 216.242188 161.980469 216.589844 163.332031 C 217.261719 165.953125 217.6875 169.402344 216.601562 172.496094 C 219.6875 171.449219 222.648438 169.871094 225.28125 167.855469 C 226.976562 166.5625 228.550781 165.082031 229.960938 163.460938 C 231.105469 162.140625 231.460938 161.660156 231.277344 160.347656 L 231.183594 159.660156 C 231.007812 158.394531 230.84375 157.199219 230.613281 155.992188 C 228.929688 147.265625 224.335938 139.125 217.675781 133.078125 C 216.660156 132.15625 215.269531 130.890625 215.195312 129.078125 C 215.117188 127.203125 216.601562 125.4375 218.648438 124.972656 C 220.042969 124.65625 221.546875 124.878906 223.386719 125.667969 C 228.597656 127.898438 232.890625 132.863281 234.867188 138.945312 C 236.105469 142.746094 236.527344 146.984375 236.128906 151.59375 C 238.71875 147.832031 240.996094 143.53125 242.921875 138.753906 C 245.382812 132.652344 246.265625 128.015625 245.785156 123.71875 C 245.277344 119.234375 243.0625 114.621094 239.546875 110.730469 C 235.132812 105.851562 229.296875 102.640625 223.121094 101.6875 C 216.703125 100.695312 210.132812 102.238281 205.113281 105.921875 C 204.6875 106.234375 204.109375 106.242188 203.671875 105.945312 C 203.238281 105.644531 203.039062 105.101562 203.175781 104.589844 C 206.34375 92.800781 205.753906 84.265625 201.371094 78.5 C 197.304688 73.136719 189.421875 70.335938 181.316406 71.34375 C 173.671875 72.300781 166.609375 76.078125 160.117188 80.015625 C 155.222656 82.984375 150.136719 86.535156 147.058594 91.152344 C 150.515625 88.734375 154.960938 87.320312 159.621094 87.320312 C 159.628906 87.320312 159.640625 87.320312 159.65625 87.320312 C 165.394531 87.332031 171.382812 89.15625 178.496094 93.0625 C 180.078125 93.929688 181.714844 94.90625 182.863281 96.46875 C 184.035156 98.0625 184.664062 100.570312 183.425781 102.589844 C 181.28125 106.101562 176.035156 104.824219 174.3125 104.402344 C 169.0625 103.125 163.664062 102.308594 158.273438 101.976562 C 153.335938 101.667969 147.082031 101.742188 142.476562 105.046875 C 137.855469 108.363281 135.355469 114.496094 135.035156 123.304688 C 135.734375 122.675781 136.429688 122.042969 137.121094 121.414062 C 140.222656 118.585938 143.15625 115.914062 146.507812 113.59375 C 152.050781 109.746094 157.871094 107.625 163.339844 107.460938 C 167.625 107.351562 171.234375 108.5625 173.5 110.914062 C 175.019531 112.496094 175.871094 114.773438 175.777344 117.011719 C 175.695312 118.890625 174.941406 120.546875 173.65625 121.675781 C 171.554688 123.519531 168.671875 123.632812 166.171875 123.617188 C 164.878906 123.601562 163.585938 123.570312 162.289062 123.535156 C 158.1875 123.429688 153.941406 123.324219 149.863281 123.863281 C 145.6875 124.414062 139.867188 125.949219 135.839844 130.152344 C 135.796875 130.199219 135.753906 130.238281 135.703125 130.277344 C 134.359375 131.320312 134.085938 133.582031 134.894531 136.996094 L 137.582031 148.34375 C 144.796875 141.515625 154.429688 137.332031 164.355469 136.777344 C 165.890625 136.691406 167.640625 136.761719 168.941406 137.90625 C 170.664062 139.417969 170.625 141.960938 169.695312 143.691406 C 168.773438 145.402344 167.136719 146.484375 165.8125 147.230469 C 160.574219 150.199219 154.695312 151.351562 149.011719 152.464844 L 140.78125 154.078125 C 140.832031 154.90625 140.855469 156.136719 140.871094 158.019531 L 140.878906 158.542969 C 140.941406 160.710938 141.136719 162.53125 141.476562 164.117188 C 141.847656 165.855469 142.375 167.5625 143.042969 169.195312 C 143.128906 169.394531 143.511719 170.109375 143.9375 170.910156 C 144.160156 171.332031 144.355469 171.699219 144.527344 172.027344 L 153.875 160.347656 C 155.246094 158.636719 156.664062 156.863281 158.367188 155.347656 C 159.253906 154.554688 160.636719 153.457031 162.359375 153.101562 C 164.265625 152.714844 166.207031 153.394531 167.195312 154.804688 C 168.273438 156.347656 168.179688 158.53125 166.9375 160.800781 C 164.519531 165.226562 160.175781 167.78125 155.976562 170.257812 C 152.898438 172.074219 149.964844 173.804688 147.734375 176.199219 Z M 206.402344 139.984375 C 206.109375 139.984375 205.820312 140.035156 205.539062 140.136719 C 204.082031 140.660156 203.351562 142.425781 203.285156 143.84375 C 203.203125 145.644531 203.867188 147.480469 204.507812 149.25 L 211.539062 168.660156 C 212.148438 170.34375 212.773438 172.078125 213 173.941406 C 213.035156 173.871094 213.078125 173.800781 213.132812 173.734375 C 215.457031 170.765625 214.785156 166.332031 214.171875 163.953125 C 213.847656 162.683594 213.421875 161.398438 213.007812 160.152344 C 212.238281 157.8125 211.441406 155.398438 211.1875 152.84375 C 211.070312 151.621094 211.074219 150.398438 211.082031 149.214844 C 211.09375 147.347656 211.105469 145.585938 210.636719 143.929688 C 210.21875 142.441406 209.089844 141.007812 207.828125 140.359375 C 207.339844 140.109375 206.863281 139.984375 206.402344 139.984375 Z M 219.894531 127.328125 C 219.644531 127.328125 219.410156 127.351562 219.1875 127.40625 C 218.433594 127.574219 217.644531 128.25 217.675781 128.976562 C 217.703125 129.746094 218.574219 130.535156 219.339844 131.234375 C 226.394531 137.640625 231.261719 146.265625 233.046875 155.523438 C 233.050781 155.539062 233.054688 155.554688 233.058594 155.570312 C 234.175781 149.640625 233.984375 144.308594 232.492188 139.71875 C 230.730469 134.308594 226.957031 129.914062 222.398438 127.957031 C 221.414062 127.535156 220.597656 127.328125 219.894531 127.328125 Z M 139.332031 154.335938 C 139.40625 154.339844 139.488281 154.335938 139.570312 154.320312 C 139.492188 154.332031 139.410156 154.335938 139.332031 154.335938 Z M 139.332031 154.335938 " fill-opacity="1" fill-rule="nonzero"/><path fill="#e8b4b8" d="M 173.75 178.742188 C 173.683594 178.742188 173.617188 178.742188 173.546875 178.738281 C 172.070312 178.664062 170.792969 177.714844 170.441406 176.433594 C 170.171875 175.457031 170.476562 174.519531 170.675781 173.898438 L 173.507812 165.164062 C 174.082031 163.382812 176.191406 162.167969 178.117188 162.523438 C 179.796875 162.828125 181.308594 164.160156 182.058594 166 C 182.949219 168.171875 182.769531 170.824219 181.578125 173.089844 C 180.558594 175.035156 178.847656 176.691406 176.632812 177.882812 C 175.882812 178.289062 174.886719 178.742188 173.75 178.742188 Z M 177.429688 164.953125 C 176.710938 164.953125 176.011719 165.5 175.875 165.929688 L 173.046875 174.671875 C 172.933594 175.027344 172.773438 175.515625 172.84375 175.773438 C 172.90625 176.007812 173.292969 176.230469 173.667969 176.246094 C 174.121094 176.257812 174.691406 176.097656 175.453125 175.6875 C 176.695312 175.019531 178.378906 173.828125 179.375 171.933594 C 180.226562 170.308594 180.371094 168.445312 179.753906 166.945312 C 179.328125 165.902344 178.507812 165.128906 177.671875 164.972656 C 177.589844 164.957031 177.507812 164.953125 177.429688 164.953125 Z M 174.691406 165.546875 L 174.703125 165.546875 Z M 174.691406 165.546875 " fill-opacity="1" fill-rule="nonzero"/><path fill="#e8b4b8" d="M 185.808594 119.773438 C 184.902344 119.773438 183.863281 119.667969 182.886719 119.222656 C 181.429688 118.558594 180.445312 117.214844 180.378906 115.792969 C 180.28125 113.667969 182.164062 112.042969 184.039062 111.699219 C 185.179688 111.484375 187.109375 111.375 188.785156 111.777344 L 188.789062 111.777344 C 191.496094 112.417969 192.089844 114.058594 192.199219 114.976562 C 192.378906 116.445312 191.574219 117.957031 190.144531 118.820312 C 188.945312 119.546875 187.570312 119.699219 186.507812 119.753906 C 186.289062 119.765625 186.050781 119.773438 185.808594 119.773438 Z M 186.265625 114 C 185.597656 114 184.964844 114.058594 184.488281 114.148438 C 183.695312 114.296875 182.835938 114.960938 182.867188 115.679688 C 182.890625 116.160156 183.320312 116.683594 183.917969 116.957031 C 184.671875 117.300781 185.632812 117.300781 186.386719 117.265625 C 187.15625 117.226562 188.132812 117.128906 188.855469 116.691406 C 189.417969 116.347656 189.785156 115.757812 189.726562 115.277344 C 189.667969 114.789062 189.15625 114.425781 188.210938 114.203125 C 187.613281 114.058594 186.921875 114 186.265625 114 Z M 186.265625 114 " fill-opacity="1" fill-rule="nonzero"/><path fill="#e8b4b8" d="M 158.519531 197.695312 C 157.859375 197.695312 157.308594 197.171875 157.277344 196.503906 C 156.628906 182.328125 160.882812 168.214844 169.261719 156.761719 C 172.535156 152.285156 176.425781 148.234375 180.1875 144.316406 C 184.5625 139.757812 189.089844 135.042969 192.558594 129.722656 C 197.636719 121.925781 200.484375 112.835938 203.242188 104.046875 C 203.445312 103.390625 204.140625 103.023438 204.800781 103.234375 C 205.457031 103.4375 205.824219 104.136719 205.617188 104.792969 C 202.808594 113.742188 199.910156 123 194.644531 131.078125 C 191.046875 136.601562 186.4375 141.398438 181.984375 146.039062 C 178.277344 149.898438 174.449219 153.886719 171.269531 158.230469 C 163.230469 169.226562 159.140625 182.777344 159.765625 196.386719 C 159.796875 197.078125 159.265625 197.660156 158.578125 197.691406 C 158.558594 197.695312 158.539062 197.695312 158.519531 197.695312 Z M 158.519531 197.695312 " fill-opacity="1" fill-rule="nonzero"/><path fill="#e8b4b8" d="M 202.800781 112.367188 C 202.519531 112.367188 202.234375 112.273438 202.003906 112.078125 C 201.851562 111.953125 201.703125 111.820312 201.558594 111.6875 C 197.25 107.71875 195.386719 101.617188 193.746094 96.234375 C 191.996094 90.488281 189.738281 84.246094 184.621094 81.386719 C 181.460938 79.617188 177.332031 79.230469 172.007812 80.199219 C 161.425781 82.132812 151.464844 88.03125 144.683594 96.386719 C 144.25 96.921875 143.464844 97 142.933594 96.566406 C 142.398438 96.132812 142.320312 95.347656 142.75 94.8125 C 149.902344 86.003906 160.402344 79.785156 171.558594 77.746094 C 177.484375 76.671875 182.148438 77.148438 185.835938 79.207031 C 191.480469 82.363281 194.097656 88.847656 196.089844 95.390625 C 197.75 100.832031 199.433594 106.339844 203.242188 109.847656 C 203.355469 109.953125 203.476562 110.0625 203.597656 110.164062 C 204.125 110.601562 204.199219 111.390625 203.757812 111.917969 C 203.511719 112.214844 203.15625 112.367188 202.800781 112.367188 Z M 202.800781 112.367188 " fill-opacity="1" fill-rule="nonzero"/><path fill="#e8b4b8" d="M 136.730469 151.277344 C 136.578125 151.277344 136.425781 151.25 136.277344 151.191406 C 135.632812 150.941406 135.316406 150.21875 135.570312 149.578125 C 139.851562 138.636719 150.089844 130.25 161.65625 128.210938 C 165.988281 127.449219 170.410156 127.535156 174.679688 127.613281 C 176.429688 127.648438 178.238281 127.683594 180 127.660156 C 187.179688 127.550781 192.320312 126.269531 196.167969 123.625 C 196.738281 123.234375 197.511719 123.378906 197.902344 123.945312 C 198.289062 124.511719 198.144531 125.289062 197.582031 125.679688 C 191.964844 129.535156 184.878906 130.078125 180.039062 130.152344 C 178.238281 130.175781 176.402344 130.140625 174.632812 130.105469 C 170.480469 130.023438 166.179688 129.945312 162.089844 130.664062 C 151.359375 132.558594 141.859375 140.335938 137.890625 150.484375 C 137.695312 150.976562 137.226562 151.277344 136.730469 151.277344 Z M 136.730469 151.277344 " fill-opacity="1" fill-rule="nonzero"/><path fill="#e8b4b8" d="M 144.664062 174.714844 C 144.121094 174.714844 143.621094 174.355469 143.46875 173.804688 C 142.054688 168.757812 144.066406 162.644531 148.601562 158.226562 C 152.589844 154.339844 157.882812 152.003906 162.554688 149.945312 C 169.671875 146.808594 176.792969 143.675781 183.914062 140.542969 C 184.542969 140.265625 185.277344 140.554688 185.554688 141.183594 C 185.832031 141.8125 185.542969 142.546875 184.914062 142.824219 C 177.796875 145.957031 170.675781 149.09375 163.558594 152.226562 C 158.859375 154.296875 154.007812 156.4375 150.335938 160.011719 C 146.449219 163.800781 144.695312 168.953125 145.867188 173.132812 C 146.054688 173.796875 145.667969 174.484375 145.003906 174.667969 C 144.890625 174.699219 144.777344 174.714844 144.664062 174.714844 Z M 144.664062 174.714844 " fill-opacity="1" fill-rule="nonzero"/><path fill="#e8b4b8" d="M 194.882812 186.402344 C 194.355469 186.402344 193.867188 186.066406 193.695312 185.535156 C 193.488281 184.878906 193.851562 184.175781 194.507812 183.96875 C 200.207031 182.15625 203.273438 175.714844 203.355469 170.289062 C 203.457031 163.671875 200.136719 157.367188 197.632812 153.199219 C 196.652344 151.570312 195.59375 149.9375 194.574219 148.355469 C 192.222656 144.714844 189.789062 140.945312 188.015625 136.859375 C 187.742188 136.230469 188.03125 135.496094 188.660156 135.222656 C 189.292969 134.945312 190.023438 135.238281 190.296875 135.867188 C 191.992188 139.765625 194.367188 143.445312 196.667969 147.003906 C 197.699219 148.601562 198.765625 150.253906 199.765625 151.917969 C 202.429688 156.347656 205.957031 163.074219 205.847656 170.328125 C 205.734375 177.816406 201.378906 184.402344 195.261719 186.347656 C 195.136719 186.382812 195.007812 186.402344 194.882812 186.402344 Z M 194.882812 186.402344 " fill-opacity="1" fill-rule="nonzero"/><path fill="#e8b4b8" d="M 214.503906 175.445312 C 214.046875 175.445312 213.605469 175.191406 213.386719 174.753906 C 213.082031 174.136719 213.335938 173.386719 213.953125 173.082031 C 220.371094 169.902344 222.582031 161.71875 221.449219 155.277344 C 220.160156 147.972656 215.488281 141.710938 211.089844 136.550781 C 210.101562 135.394531 209.09375 134.242188 208.082031 133.097656 C 204.535156 129.0625 200.867188 124.894531 198.121094 120.148438 C 197.777344 119.550781 197.980469 118.789062 198.574219 118.445312 C 199.171875 118.097656 199.933594 118.304688 200.277344 118.898438 C 202.898438 123.433594 206.484375 127.507812 209.953125 131.449219 C 210.972656 132.609375 211.988281 133.765625 212.984375 134.933594 C 217.601562 140.351562 222.507812 146.953125 223.902344 154.847656 C 225.199219 162.203125 222.574219 171.597656 215.054688 175.316406 C 214.878906 175.40625 214.691406 175.445312 214.503906 175.445312 Z M 214.503906 175.445312 " fill-opacity="1" fill-rule="nonzero"/><path fill="#e8b4b8" d="M 235.125 155.792969 C 235.003906 155.792969 234.882812 155.773438 234.761719 155.738281 C 234.105469 155.539062 233.734375 154.84375 233.933594 154.183594 C 235.296875 149.683594 236.617188 144.878906 236.539062 139.976562 C 236.457031 134.824219 234.660156 130.242188 231.597656 127.402344 C 228.210938 124.261719 223.355469 123.125 218.65625 122.03125 C 217.824219 121.835938 216.992188 121.640625 216.175781 121.4375 C 208.320312 119.480469 203.390625 116.066406 201.519531 111.289062 C 201.269531 110.648438 201.585938 109.925781 202.226562 109.675781 C 202.863281 109.425781 203.585938 109.742188 203.839844 110.378906 C 205.398438 114.363281 209.75 117.269531 216.777344 119.015625 C 217.585938 119.21875 218.402344 119.410156 219.226562 119.601562 C 224.238281 120.773438 229.421875 121.984375 233.292969 125.574219 C 236.847656 128.871094 238.9375 134.105469 239.03125 139.9375 C 239.117188 145.199219 237.671875 150.421875 236.316406 154.90625 C 236.152344 155.445312 235.660156 155.792969 235.125 155.792969 Z M 235.125 155.792969 " fill-opacity="1" fill-rule="nonzero"/><path fill="#e8b4b8" d="M 134.191406 126.644531 C 134.128906 126.644531 134.0625 126.636719 133.996094 126.628906 C 133.320312 126.523438 132.855469 125.882812 132.960938 125.203125 C 134.804688 113.523438 146.136719 106.238281 155.886719 104.414062 C 166.53125 102.429688 177.308594 104.976562 187.4375 107.761719 C 193.097656 109.320312 198.699219 111.421875 201.367188 116.1875 C 201.703125 116.789062 201.488281 117.546875 200.886719 117.882812 C 200.285156 118.21875 199.527344 118.003906 199.191406 117.402344 C 196.863281 113.238281 191.5625 111.480469 186.78125 110.164062 C 176.929688 107.457031 166.460938 104.972656 156.34375 106.863281 C 147.425781 108.53125 137.078125 115.105469 135.421875 125.589844 C 135.324219 126.203125 134.792969 126.644531 134.191406 126.644531 Z M 134.191406 126.644531 " fill-opacity="1" fill-rule="nonzero"/><path fill="#e8b4b8" d="M 184.972656 95.480469 C 184.101562 95.480469 183.191406 95.121094 182.363281 94.441406 C 180.988281 93.3125 180.09375 91.652344 179.910156 89.886719 C 179.898438 89.789062 179.816406 88.917969 180.011719 87.976562 C 180.238281 86.878906 180.875 86.003906 181.757812 85.574219 C 182.886719 85.023438 184.316406 85.253906 185.582031 86.191406 C 186.992188 87.234375 187.96875 88.828125 188.265625 90.554688 C 188.445312 91.597656 188.347656 92.578125 187.992188 93.390625 C 187.507812 94.480469 186.535156 95.265625 185.453125 95.441406 C 185.296875 95.46875 185.132812 95.480469 184.972656 95.480469 Z M 183.070312 87.769531 C 182.988281 87.769531 182.914062 87.785156 182.855469 87.816406 C 182.679688 87.902344 182.515625 88.171875 182.449219 88.492188 C 182.355469 88.933594 182.367188 89.449219 182.382812 89.628906 C 182.5 90.730469 183.082031 91.808594 183.9375 92.511719 C 184.355469 92.855469 184.777344 93.03125 185.058594 92.984375 C 185.308594 92.945312 185.574219 92.699219 185.714844 92.386719 C 185.917969 91.925781 185.878906 91.367188 185.8125 90.980469 C 185.625 89.878906 185 88.863281 184.101562 88.199219 C 183.738281 87.925781 183.347656 87.769531 183.070312 87.769531 Z M 183.070312 87.769531 " fill-opacity="1" fill-rule="nonzero"/><path fill="#e8b4b8" d="M 219.617188 117.308594 C 218.5625 117.308594 217.507812 117.136719 216.515625 116.792969 C 214.398438 116.058594 213.011719 114.578125 212.8125 112.839844 C 212.589844 110.902344 213.925781 109.230469 215.347656 108.441406 C 216.714844 107.671875 218.234375 107.492188 219.578125 107.332031 L 219.582031 107.332031 C 220.730469 107.195312 222.238281 107.089844 223.691406 107.5 C 225.28125 107.941406 226.992188 109.269531 227.246094 111.222656 C 227.542969 113.523438 225.75 115.347656 224.121094 116.210938 C 222.746094 116.933594 221.179688 117.308594 219.617188 117.308594 Z M 219.871094 109.804688 C 218.707031 109.945312 217.496094 110.089844 216.558594 110.613281 C 215.863281 111.003906 215.199219 111.796875 215.289062 112.554688 C 215.390625 113.457031 216.453125 114.132812 217.332031 114.4375 C 219.152344 115.066406 221.253906 114.90625 222.953125 114.003906 C 223.917969 113.492188 224.902344 112.503906 224.777344 111.542969 C 224.667969 110.71875 223.789062 110.113281 223.019531 109.894531 C 221.992188 109.609375 220.851562 109.691406 219.871094 109.804688 Z M 219.871094 109.804688 " fill-opacity="1" fill-rule="nonzero"/><path fill="#e8b4b8" d="M 178.933594 126.894531 C 178.019531 126.894531 177.1875 126.507812 176.703125 125.847656 C 176.011719 124.910156 176.101562 123.542969 176.910156 122.597656 C 177.476562 121.9375 178.34375 121.515625 179.359375 121.414062 C 180.230469 121.316406 181.355469 121.699219 181.871094 122.746094 C 182.3125 123.644531 182.199219 124.769531 181.574219 125.609375 C 181.054688 126.3125 180.222656 126.773438 179.300781 126.875 C 179.175781 126.886719 179.050781 126.894531 178.933594 126.894531 Z M 179.488281 122.652344 L 179.617188 123.890625 C 179.25 123.929688 178.945312 124.050781 178.800781 124.21875 C 178.746094 124.285156 178.726562 124.382812 178.734375 124.417969 C 178.726562 124.386719 178.804688 124.402344 178.921875 124.402344 C 178.953125 124.402344 178.988281 124.402344 179.023438 124.394531 C 179.257812 124.367188 179.472656 124.261719 179.582031 124.117188 C 179.65625 124.015625 179.660156 123.886719 179.640625 123.847656 Z M 179.488281 122.652344 " fill-opacity="1" fill-rule="nonzero"/><path fill="#e8b4b8" d="M 231.429688 122.992188 C 230.792969 122.992188 230.152344 122.953125 229.519531 122.871094 C 228.628906 122.75 227.359375 122.46875 226.625 121.378906 C 225.949219 120.378906 225.988281 119.003906 226.71875 117.953125 C 227.285156 117.132812 228.207031 116.570312 229.308594 116.371094 C 230.171875 116.210938 231.035156 116.289062 231.832031 116.398438 C 231.835938 116.402344 231.835938 116.402344 231.839844 116.402344 L 232.25 116.460938 C 232.5 116.496094 232.746094 116.535156 232.988281 116.5625 C 234.078125 116.691406 235.925781 117.40625 236.578125 118.839844 C 236.960938 119.683594 236.855469 120.609375 236.285156 121.445312 C 235.621094 122.421875 234.492188 122.695312 233.699219 122.816406 C 232.945312 122.933594 232.1875 122.992188 231.429688 122.992188 Z M 230.351562 118.773438 C 230.140625 118.773438 229.945312 118.789062 229.757812 118.820312 C 229.320312 118.898438 228.949219 119.109375 228.765625 119.375 C 228.621094 119.585938 228.609375 119.863281 228.6875 119.980469 C 228.777344 120.113281 229.050781 120.289062 229.847656 120.398438 C 231 120.546875 232.167969 120.53125 233.320312 120.351562 C 234.023438 120.246094 234.191406 120.09375 234.234375 120.035156 C 234.308594 119.925781 234.316406 119.871094 234.316406 119.867188 C 234.253906 119.632812 233.433594 119.125 232.699219 119.035156 C 232.4375 119.003906 232.164062 118.964844 231.890625 118.925781 L 231.496094 118.867188 C 231.066406 118.8125 230.691406 118.773438 230.351562 118.773438 Z M 230.351562 118.773438 " fill-opacity="1" fill-rule="nonzero"/><g fill="#e8b4b8" fill-opacity="1"><g transform="translate(122.335976, 235.618885)"><g><path d="M 6.96875 0.21875 C 5.875 0.21875 4.898438 0.0859375 4.046875 -0.171875 C 3.203125 -0.441406 2.492188 -0.796875 1.921875 -1.234375 C 1.359375 -1.671875 0.929688 -2.148438 0.640625 -2.671875 L 2.34375 -4.765625 L 2.609375 -4.765625 C 3.078125 -4.054688 3.675781 -3.492188 4.40625 -3.078125 C 5.132812 -2.660156 5.988281 -2.453125 6.96875 -2.453125 C 7.789062 -2.453125 8.410156 -2.628906 8.828125 -2.984375 C 9.253906 -3.335938 9.46875 -3.820312 9.46875 -4.4375 C 9.46875 -4.8125 9.398438 -5.125 9.265625 -5.375 C 9.128906 -5.625 8.90625 -5.835938 8.59375 -6.015625 C 8.28125 -6.191406 7.851562 -6.347656 7.3125 -6.484375 L 5.296875 -6.9375 C 3.890625 -7.257812 2.835938 -7.796875 2.140625 -8.546875 C 1.453125 -9.296875 1.109375 -10.269531 1.109375 -11.46875 C 1.109375 -12.351562 1.328125 -13.128906 1.765625 -13.796875 C 2.210938 -14.472656 2.859375 -15 3.703125 -15.375 C 4.554688 -15.75 5.570312 -15.9375 6.75 -15.9375 C 7.96875 -15.9375 9.003906 -15.773438 9.859375 -15.453125 C 10.722656 -15.128906 11.453125 -14.640625 12.046875 -13.984375 L 10.515625 -11.875 L 10.25 -11.875 C 9.800781 -12.34375 9.289062 -12.691406 8.71875 -12.921875 C 8.144531 -13.160156 7.488281 -13.28125 6.75 -13.28125 C 5.90625 -13.28125 5.257812 -13.128906 4.8125 -12.828125 C 4.363281 -12.523438 4.140625 -12.109375 4.140625 -11.578125 C 4.140625 -11.085938 4.296875 -10.691406 4.609375 -10.390625 C 4.921875 -10.097656 5.460938 -9.875 6.234375 -9.71875 L 8.296875 -9.28125 C 9.816406 -8.957031 10.921875 -8.410156 11.609375 -7.640625 C 12.296875 -6.867188 12.640625 -5.863281 12.640625 -4.625 C 12.640625 -3.644531 12.425781 -2.789062 12 -2.0625 C 11.582031 -1.34375 10.945312 -0.78125 10.09375 -0.375 C 9.238281 0.0195312 8.195312 0.21875 6.96875 0.21875 Z M 6.96875 0.21875 "/></g></g></g><g fill="#e8b4b8" fill-opacity="1"><g transform="translate(135.825767, 235.618885)"><g><path d="M 4.625 0.21875 C 3.863281 0.21875 3.203125 0.0820312 2.640625 -0.1875 C 2.085938 -0.46875 1.660156 -0.878906 1.359375 -1.421875 C 1.054688 -1.960938 0.90625 -2.613281 0.90625 -3.375 C 0.90625 -4.070312 1.054688 -4.660156 1.359375 -5.140625 C 1.660156 -5.617188 2.125 -6.007812 2.75 -6.3125 C 3.382812 -6.613281 4.207031 -6.847656 5.21875 -7.015625 C 5.925781 -7.128906 6.460938 -7.253906 6.828125 -7.390625 C 7.203125 -7.523438 7.453125 -7.675781 7.578125 -7.84375 C 7.710938 -8.019531 7.78125 -8.242188 7.78125 -8.515625 C 7.78125 -8.890625 7.644531 -9.175781 7.375 -9.375 C 7.113281 -9.570312 6.675781 -9.671875 6.0625 -9.671875 C 5.40625 -9.671875 4.773438 -9.523438 4.171875 -9.234375 C 3.578125 -8.941406 3.0625 -8.554688 2.625 -8.078125 L 2.421875 -8.078125 L 1.171875 -9.953125 C 1.773438 -10.617188 2.507812 -11.140625 3.375 -11.515625 C 4.238281 -11.890625 5.179688 -12.078125 6.203125 -12.078125 C 7.773438 -12.078125 8.910156 -11.742188 9.609375 -11.078125 C 10.316406 -10.410156 10.671875 -9.460938 10.671875 -8.234375 L 10.671875 -3.09375 C 10.671875 -2.5625 10.898438 -2.296875 11.359375 -2.296875 C 11.546875 -2.296875 11.722656 -2.328125 11.890625 -2.390625 L 12.046875 -2.359375 L 12.25 -0.28125 C 12.09375 -0.175781 11.863281 -0.0859375 11.5625 -0.015625 C 11.269531 0.0546875 10.953125 0.09375 10.609375 0.09375 C 9.898438 0.09375 9.34375 -0.0390625 8.9375 -0.3125 C 8.539062 -0.59375 8.257812 -1.019531 8.09375 -1.59375 L 7.859375 -1.625 C 7.285156 -0.394531 6.207031 0.21875 4.625 0.21875 Z M 5.5625 -2 C 6.25 -2 6.796875 -2.226562 7.203125 -2.6875 C 7.617188 -3.15625 7.828125 -3.800781 7.828125 -4.625 L 7.828125 -5.828125 L 7.625 -5.859375 C 7.445312 -5.722656 7.210938 -5.601562 6.921875 -5.5 C 6.628906 -5.40625 6.210938 -5.3125 5.671875 -5.21875 C 5.023438 -5.113281 4.5625 -4.929688 4.28125 -4.671875 C 4 -4.410156 3.859375 -4.039062 3.859375 -3.5625 C 3.859375 -3.050781 4.007812 -2.660156 4.3125 -2.390625 C 4.613281 -2.128906 5.03125 -2 5.5625 -2 Z M 5.5625 -2 "/></g></g></g><g fill="#e8b4b8" fill-opacity="1"><g transform="translate(148.316717, 235.618885)"><g><path d="M 1.703125 0 L 1.703125 -11.84375 L 4.5625 -11.84375 L 4.5625 -10.265625 L 4.796875 -10.21875 C 5.179688 -10.851562 5.628906 -11.320312 6.140625 -11.625 C 6.660156 -11.925781 7.328125 -12.078125 8.140625 -12.078125 C 9.035156 -12.078125 9.753906 -11.898438 10.296875 -11.546875 C 10.847656 -11.191406 11.25 -10.671875 11.5 -9.984375 L 11.71875 -9.984375 C 12.082031 -10.691406 12.550781 -11.21875 13.125 -11.5625 C 13.707031 -11.90625 14.425781 -12.078125 15.28125 -12.078125 C 17.738281 -12.078125 18.96875 -10.707031 18.96875 -7.96875 L 18.96875 0 L 16 0 L 16 -7.59375 C 16 -8.289062 15.859375 -8.789062 15.578125 -9.09375 C 15.304688 -9.40625 14.875 -9.5625 14.28125 -9.5625 C 12.644531 -9.5625 11.828125 -8.46875 11.828125 -6.28125 L 11.828125 0 L 8.859375 0 L 8.859375 -7.59375 C 8.859375 -8.289062 8.71875 -8.789062 8.4375 -9.09375 C 8.164062 -9.40625 7.726562 -9.5625 7.125 -9.5625 C 6.351562 -9.5625 5.753906 -9.304688 5.328125 -8.796875 C 4.898438 -8.285156 4.6875 -7.46875 4.6875 -6.34375 L 4.6875 0 Z M 1.703125 0 "/></g></g></g><g fill="#e8b4b8" fill-opacity="1"><g transform="translate(168.809171, 235.618885)"><g><path d="M 1.703125 4.796875 L 1.703125 -11.84375 L 4.6875 -11.84375 L 4.6875 -10.296875 L 4.90625 -10.265625 C 5.257812 -10.859375 5.726562 -11.304688 6.3125 -11.609375 C 6.90625 -11.921875 7.59375 -12.078125 8.375 -12.078125 C 9.332031 -12.078125 10.164062 -11.847656 10.875 -11.390625 C 11.59375 -10.941406 12.148438 -10.253906 12.546875 -9.328125 C 12.941406 -8.410156 13.140625 -7.273438 13.140625 -5.921875 C 13.140625 -4.566406 12.925781 -3.429688 12.5 -2.515625 C 12.082031 -1.597656 11.5 -0.910156 10.75 -0.453125 C 10.007812 -0.00390625 9.15625 0.21875 8.1875 0.21875 C 7.445312 0.21875 6.804688 0.0976562 6.265625 -0.140625 C 5.734375 -0.390625 5.28125 -0.773438 4.90625 -1.296875 L 4.6875 -1.25 L 4.6875 4.796875 Z M 7.359375 -2.296875 C 8.242188 -2.296875 8.914062 -2.585938 9.375 -3.171875 C 9.832031 -3.753906 10.0625 -4.671875 10.0625 -5.921875 C 10.0625 -7.171875 9.832031 -8.085938 9.375 -8.671875 C 8.914062 -9.253906 8.242188 -9.546875 7.359375 -9.546875 C 6.523438 -9.546875 5.863281 -9.242188 5.375 -8.640625 C 4.894531 -8.046875 4.65625 -7.140625 4.65625 -5.921875 C 4.65625 -4.710938 4.894531 -3.804688 5.375 -3.203125 C 5.863281 -2.597656 6.523438 -2.296875 7.359375 -2.296875 Z M 7.359375 -2.296875 "/></g></g></g><g fill="#e8b4b8" fill-opacity="1"><g transform="translate(182.997086, 235.618885)"><g><path d="M 4.921875 0.21875 C 3.847656 0.21875 3.03125 -0.0664062 2.46875 -0.640625 C 1.914062 -1.210938 1.640625 -2.085938 1.640625 -3.265625 L 1.640625 -16.609375 L 4.609375 -16.609375 L 4.609375 -3.390625 C 4.609375 -2.660156 4.910156 -2.296875 5.515625 -2.296875 C 5.679688 -2.296875 5.863281 -2.328125 6.0625 -2.390625 L 6.203125 -2.34375 L 6.484375 -0.046875 C 6.316406 0.0351562 6.097656 0.0976562 5.828125 0.140625 C 5.554688 0.191406 5.253906 0.21875 4.921875 0.21875 Z M 4.921875 0.21875 "/></g></g></g><g fill="#e8b4b8" fill-opacity="1"><g transform="translate(189.806423, 235.618885)"><g><path d="M 11.703125 -5.25 L 4.09375 -5.25 C 4.175781 -4.21875 4.46875 -3.46875 4.96875 -3 C 5.46875 -2.53125 6.15625 -2.296875 7.03125 -2.296875 C 7.707031 -2.296875 8.253906 -2.421875 8.671875 -2.671875 C 9.097656 -2.929688 9.441406 -3.316406 9.703125 -3.828125 L 9.921875 -3.828125 L 11.90625 -2.5625 C 11.519531 -1.738281 10.9375 -1.066406 10.15625 -0.546875 C 9.375 -0.0351562 8.332031 0.21875 7.03125 0.21875 C 5.800781 0.21875 4.738281 -0.0078125 3.84375 -0.46875 C 2.957031 -0.9375 2.269531 -1.628906 1.78125 -2.546875 C 1.300781 -3.472656 1.0625 -4.597656 1.0625 -5.921875 C 1.0625 -7.265625 1.316406 -8.394531 1.828125 -9.3125 C 2.335938 -10.238281 3.023438 -10.929688 3.890625 -11.390625 C 4.753906 -11.847656 5.726562 -12.078125 6.8125 -12.078125 C 8.488281 -12.078125 9.769531 -11.628906 10.65625 -10.734375 C 11.550781 -9.847656 12 -8.546875 12 -6.828125 C 12 -6.203125 11.976562 -5.71875 11.9375 -5.375 Z M 9.15625 -7.171875 C 9.125 -8.078125 8.910156 -8.734375 8.515625 -9.140625 C 8.128906 -9.554688 7.5625 -9.765625 6.8125 -9.765625 C 5.3125 -9.765625 4.425781 -8.898438 4.15625 -7.171875 Z M 9.15625 -7.171875 "/></g></g></g><g fill="#e8b4b8" fill-opacity="1"><g transform="translate(202.684023, 235.618885)"><g/></g></g><g fill="#e8b4b8" fill-opacity="1"><g transform="translate(207.871584, 235.618885)"><g><path d="M 6.96875 0.21875 C 5.875 0.21875 4.898438 0.0859375 4.046875 -0.171875 C 3.203125 -0.441406 2.492188 -0.796875 1.921875 -1.234375 C 1.359375 -1.671875 0.929688 -2.148438 0.640625 -2.671875 L 2.34375 -4.765625 L 2.609375 -4.765625 C 3.078125 -4.054688 3.675781 -3.492188 4.40625 -3.078125 C 5.132812 -2.660156 5.988281 -2.453125 6.96875 -2.453125 C 7.789062 -2.453125 8.410156 -2.628906 8.828125 -2.984375 C 9.253906 -3.335938 9.46875 -3.820312 9.46875 -4.4375 C 9.46875 -4.8125 9.398438 -5.125 9.265625 -5.375 C 9.128906 -5.625 8.90625 -5.835938 8.59375 -6.015625 C 8.28125 -6.191406 7.851562 -6.347656 7.3125 -6.484375 L 5.296875 -6.9375 C 3.890625 -7.257812 2.835938 -7.796875 2.140625 -8.546875 C 1.453125 -9.296875 1.109375 -10.269531 1.109375 -11.46875 C 1.109375 -12.351562 1.328125 -13.128906 1.765625 -13.796875 C 2.210938 -14.472656 2.859375 -15 3.703125 -15.375 C 4.554688 -15.75 5.570312 -15.9375 6.75 -15.9375 C 7.96875 -15.9375 9.003906 -15.773438 9.859375 -15.453125 C 10.722656 -15.128906 11.453125 -14.640625 12.046875 -13.984375 L 10.515625 -11.875 L 10.25 -11.875 C 9.800781 -12.34375 9.289062 -12.691406 8.71875 -12.921875 C 8.144531 -13.160156 7.488281 -13.28125 6.75 -13.28125 C 5.90625 -13.28125 5.257812 -13.128906 4.8125 -12.828125 C 4.363281 -12.523438 4.140625 -12.109375 4.140625 -11.578125 C 4.140625 -11.085938 4.296875 -10.691406 4.609375 -10.390625 C 4.921875 -10.097656 5.460938 -9.875 6.234375 -9.71875 L 8.296875 -9.28125 C 9.816406 -8.957031 10.921875 -8.410156 11.609375 -7.640625 C 12.296875 -6.867188 12.640625 -5.863281 12.640625 -4.625 C 12.640625 -3.644531 12.425781 -2.789062 12 -2.0625 C 11.582031 -1.34375 10.945312 -0.78125 10.09375 -0.375 C 9.238281 0.0195312 8.195312 0.21875 6.96875 0.21875 Z M 6.96875 0.21875 "/></g></g></g><g fill="#e8b4b8" fill-opacity="1"><g transform="translate(221.361375, 235.618885)"><g><path d="M 9.328125 0 L 5.59375 0 L 0.28125 -15.703125 L 3.578125 -15.703125 L 7.390625 -4 L 7.65625 -4 L 11.421875 -15.703125 L 14.625 -15.703125 Z M 9.328125 0 "/></g></g></g><g fill="#e8b4b8" fill-opacity="1"><g transform="translate(236.268882, 235.618885)"><g><path d="M 7.625 0.21875 C 6.3125 0.21875 5.175781 -0.078125 4.21875 -0.671875 C 3.269531 -1.265625 2.535156 -2.164062 2.015625 -3.375 C 1.492188 -4.582031 1.234375 -6.078125 1.234375 -7.859375 C 1.234375 -9.640625 1.546875 -11.132812 2.171875 -12.34375 C 2.796875 -13.550781 3.660156 -14.453125 4.765625 -15.046875 C 5.867188 -15.640625 7.148438 -15.9375 8.609375 -15.9375 C 10.117188 -15.9375 11.398438 -15.65625 12.453125 -15.09375 C 13.515625 -14.53125 14.265625 -13.695312 14.703125 -12.59375 L 12.421875 -11.21875 L 12.15625 -11.234375 C 11.832031 -11.941406 11.378906 -12.453125 10.796875 -12.765625 C 10.210938 -13.085938 9.484375 -13.25 8.609375 -13.25 C 7.253906 -13.25 6.21875 -12.820312 5.5 -11.96875 C 4.789062 -11.113281 4.4375 -9.742188 4.4375 -7.859375 C 4.4375 -5.953125 4.769531 -4.566406 5.4375 -3.703125 C 6.113281 -2.847656 7.101562 -2.421875 8.40625 -2.421875 C 9.539062 -2.421875 10.375 -2.675781 10.90625 -3.1875 C 11.445312 -3.695312 11.71875 -4.457031 11.71875 -5.46875 L 11.71875 -6.140625 L 8 -6.140625 L 8 -8.671875 L 14.796875 -8.671875 L 14.796875 0 L 11.84375 0 L 11.84375 -2.109375 L 11.609375 -2.140625 C 11.285156 -1.390625 10.796875 -0.804688 10.140625 -0.390625 C 9.484375 0.015625 8.644531 0.21875 7.625 0.21875 Z M 7.625 0.21875 "/></g></g></g><g fill="#e8b4b8" fill-opacity="1"><g transform="translate(154.80863, 266.368883)"><g><path d="M 5.140625 0 L 2.046875 0 L 2.046875 -15.703125 L 5.140625 -15.703125 Z M 5.140625 0 "/></g></g></g><g fill="#e8b4b8" fill-opacity="1"><g transform="translate(162.004617, 266.368883)"><g><path d="M 1.703125 0 L 1.703125 -11.84375 L 4.5625 -11.84375 L 4.5625 -10.265625 L 4.796875 -10.21875 C 5.179688 -10.851562 5.628906 -11.320312 6.140625 -11.625 C 6.660156 -11.925781 7.328125 -12.078125 8.140625 -12.078125 C 9.035156 -12.078125 9.753906 -11.898438 10.296875 -11.546875 C 10.847656 -11.191406 11.25 -10.671875 11.5 -9.984375 L 11.71875 -9.984375 C 12.082031 -10.691406 12.550781 -11.21875 13.125 -11.5625 C 13.707031 -11.90625 14.425781 -12.078125 15.28125 -12.078125 C 17.738281 -12.078125 18.96875 -10.707031 18.96875 -7.96875 L 18.96875 0 L 16 0 L 16 -7.59375 C 16 -8.289062 15.859375 -8.789062 15.578125 -9.09375 C 15.304688 -9.40625 14.875 -9.5625 14.28125 -9.5625 C 12.644531 -9.5625 11.828125 -8.46875 11.828125 -6.28125 L 11.828125 0 L 8.859375 0 L 8.859375 -7.59375 C 8.859375 -8.289062 8.71875 -8.789062 8.4375 -9.09375 C 8.164062 -9.40625 7.726562 -9.5625 7.125 -9.5625 C 6.351562 -9.5625 5.753906 -9.304688 5.328125 -8.796875 C 4.898438 -8.285156 4.6875 -7.46875 4.6875 -6.34375 L 4.6875 0 Z M 1.703125 0 "/></g></g></g><g fill="#e8b4b8" fill-opacity="1"><g transform="translate(182.49707, 266.368883)"><g><path d="M 4.625 0.21875 C 3.863281 0.21875 3.203125 0.0820312 2.640625 -0.1875 C 2.085938 -0.46875 1.660156 -0.878906 1.359375 -1.421875 C 1.054688 -1.960938 0.90625 -2.613281 0.90625 -3.375 C 0.90625 -4.070312 1.054688 -4.660156 1.359375 -5.140625 C 1.660156 -5.617188 2.125 -6.007812 2.75 -6.3125 C 3.382812 -6.613281 4.207031 -6.847656 5.21875 -7.015625 C 5.925781 -7.128906 6.460938 -7.253906 6.828125 -7.390625 C 7.203125 -7.523438 7.453125 -7.675781 7.578125 -7.84375 C 7.710938 -8.019531 7.78125 -8.242188 7.78125 -8.515625 C 7.78125 -8.890625 7.644531 -9.175781 7.375 -9.375 C 7.113281 -9.570312 6.675781 -9.671875 6.0625 -9.671875 C 5.40625 -9.671875 4.773438 -9.523438 4.171875 -9.234375 C 3.578125 -8.941406 3.0625 -8.554688 2.625 -8.078125 L 2.421875 -8.078125 L 1.171875 -9.953125 C 1.773438 -10.617188 2.507812 -11.140625 3.375 -11.515625 C 4.238281 -11.890625 5.179688 -12.078125 6.203125 -12.078125 C 7.773438 -12.078125 8.910156 -11.742188 9.609375 -11.078125 C 10.316406 -10.410156 10.671875 -9.460938 10.671875 -8.234375 L 10.671875 -3.09375 C 10.671875 -2.5625 10.898438 -2.296875 11.359375 -2.296875 C 11.546875 -2.296875 11.722656 -2.328125 11.890625 -2.390625 L 12.046875 -2.359375 L 12.25 -0.28125 C 12.09375 -0.175781 11.863281 -0.0859375 11.5625 -0.015625 C 11.269531 0.0546875 10.953125 0.09375 10.609375 0.09375 C 9.898438 0.09375 9.34375 -0.0390625 8.9375 -0.3125 C 8.539062 -0.59375 8.257812 -1.019531 8.09375 -1.59375 L 7.859375 -1.625 C 7.285156 -0.394531 6.207031 0.21875 4.625 0.21875 Z M 5.5625 -2 C 6.25 -2 6.796875 -2.226562 7.203125 -2.6875 C 7.617188 -3.15625 7.828125 -3.800781 7.828125 -4.625 L 7.828125 -5.828125 L 7.625 -5.859375 C 7.445312 -5.722656 7.210938 -5.601562 6.921875 -5.5 C 6.628906 -5.40625 6.210938 -5.3125 5.671875 -5.21875 C 5.023438 -5.113281 4.5625 -4.929688 4.28125 -4.671875 C 4 -4.410156 3.859375 -4.039062 3.859375 -3.5625 C 3.859375 -3.050781 4.007812 -2.660156 4.3125 -2.390625 C 4.613281 -2.128906 5.03125 -2 5.5625 -2 Z M 5.5625 -2 "/></g></g></g><g fill="#e8b4b8" fill-opacity="1"><g transform="translate(194.988021, 266.368883)"><g><path d="M 6.140625 5.03125 C 4.191406 5.03125 2.75 4.742188 1.8125 4.171875 C 0.882812 3.597656 0.421875 2.796875 0.421875 1.765625 C 0.421875 1.148438 0.617188 0.640625 1.015625 0.234375 C 1.410156 -0.160156 1.984375 -0.425781 2.734375 -0.5625 L 2.734375 -0.78125 C 2.328125 -1.03125 2.035156 -1.300781 1.859375 -1.59375 C 1.679688 -1.894531 1.59375 -2.238281 1.59375 -2.625 C 1.59375 -3.582031 2.210938 -4.226562 3.453125 -4.5625 L 3.453125 -4.78125 C 2.816406 -5.144531 2.335938 -5.597656 2.015625 -6.140625 C 1.691406 -6.679688 1.53125 -7.332031 1.53125 -8.09375 C 1.53125 -8.882812 1.710938 -9.578125 2.078125 -10.171875 C 2.441406 -10.773438 2.972656 -11.242188 3.671875 -11.578125 C 4.367188 -11.910156 5.203125 -12.078125 6.171875 -12.078125 C 7.160156 -12.078125 7.953125 -11.90625 8.546875 -11.5625 C 8.910156 -12.09375 9.117188 -12.703125 9.171875 -13.390625 L 9.40625 -13.53125 L 11.53125 -13.015625 C 11.46875 -12.441406 11.300781 -11.960938 11.03125 -11.578125 C 10.769531 -11.203125 10.363281 -10.863281 9.8125 -10.5625 L 9.8125 -10.328125 C 10.476562 -9.734375 10.8125 -8.910156 10.8125 -7.859375 C 10.8125 -7.128906 10.628906 -6.472656 10.265625 -5.890625 C 9.898438 -5.316406 9.363281 -4.859375 8.65625 -4.515625 C 7.957031 -4.179688 7.128906 -4.015625 6.171875 -4.015625 L 5.71875 -4.03125 C 5.4375 -4.039062 5.238281 -4.046875 5.125 -4.046875 C 4.851562 -4.046875 4.640625 -3.972656 4.484375 -3.828125 C 4.328125 -3.679688 4.25 -3.492188 4.25 -3.265625 C 4.25 -3.015625 4.347656 -2.816406 4.546875 -2.671875 C 4.753906 -2.535156 5.050781 -2.460938 5.4375 -2.453125 L 8.09375 -2.359375 C 10.707031 -2.273438 12.015625 -1.144531 12.015625 1.03125 C 12.015625 1.800781 11.816406 2.484375 11.421875 3.078125 C 11.035156 3.671875 10.40625 4.144531 9.53125 4.5 C 8.664062 4.851562 7.535156 5.03125 6.140625 5.03125 Z M 6.171875 -6.109375 C 6.742188 -6.109375 7.191406 -6.273438 7.515625 -6.609375 C 7.835938 -6.941406 8 -7.421875 8 -8.046875 C 8 -8.671875 7.835938 -9.148438 7.515625 -9.484375 C 7.191406 -9.816406 6.742188 -9.984375 6.171875 -9.984375 C 5.597656 -9.984375 5.148438 -9.816406 4.828125 -9.484375 C 4.515625 -9.148438 4.359375 -8.671875 4.359375 -8.046875 C 4.359375 -7.410156 4.515625 -6.925781 4.828125 -6.59375 C 5.148438 -6.269531 5.597656 -6.109375 6.171875 -6.109375 Z M 6.140625 2.875 C 7.160156 2.875 7.898438 2.726562 8.359375 2.4375 C 8.828125 2.15625 9.0625 1.785156 9.0625 1.328125 C 9.0625 0.953125 8.941406 0.675781 8.703125 0.5 C 8.460938 0.320312 8.085938 0.226562 7.578125 0.21875 L 5.234375 0.109375 C 5.148438 0.109375 5.070312 0.101562 5 0.09375 C 4.9375 0.09375 4.875 0.09375 4.8125 0.09375 C 4.3125 0.09375 3.929688 0.195312 3.671875 0.40625 C 3.410156 0.625 3.28125 0.921875 3.28125 1.296875 C 3.28125 1.796875 3.519531 2.179688 4 2.453125 C 4.476562 2.734375 5.191406 2.875 6.140625 2.875 Z M 6.140625 2.875 "/></g></g></g><g fill="#e8b4b8" fill-opacity="1"><g transform="translate(207.307128, 266.368883)"><g><path d="M 11.703125 -5.25 L 4.09375 -5.25 C 4.175781 -4.21875 4.46875 -3.46875 4.96875 -3 C 5.46875 -2.53125 6.15625 -2.296875 7.03125 -2.296875 C 7.707031 -2.296875 8.253906 -2.421875 8.671875 -2.671875 C 9.097656 -2.929688 9.441406 -3.316406 9.703125 -3.828125 L 9.921875 -3.828125 L 11.90625 -2.5625 C 11.519531 -1.738281 10.9375 -1.066406 10.15625 -0.546875 C 9.375 -0.0351562 8.332031 0.21875 7.03125 0.21875 C 5.800781 0.21875 4.738281 -0.0078125 3.84375 -0.46875 C 2.957031 -0.9375 2.269531 -1.628906 1.78125 -2.546875 C 1.300781 -3.472656 1.0625 -4.597656 1.0625 -5.921875 C 1.0625 -7.265625 1.316406 -8.394531 1.828125 -9.3125 C 2.335938 -10.238281 3.023438 -10.929688 3.890625 -11.390625 C 4.753906 -11.847656 5.726562 -12.078125 6.8125 -12.078125 C 8.488281 -12.078125 9.769531 -11.628906 10.65625 -10.734375 C 11.550781 -9.847656 12 -8.546875 12 -6.828125 C 12 -6.203125 11.976562 -5.71875 11.9375 -5.375 Z M 9.15625 -7.171875 C 9.125 -8.078125 8.910156 -8.734375 8.515625 -9.140625 C 8.128906 -9.554688 7.5625 -9.765625 6.8125 -9.765625 C 5.3125 -9.765625 4.425781 -8.898438 4.15625 -7.171875 Z M 9.15625 -7.171875 "/></g></g></g></svg>